<?xml version="1.0" encoding="UTF-8"?>
<svg version="1.1" xmlns="http://www.w3.org/2000/svg" width="332" height="230">
<path d="M0 0 C0.92607559 -0.00570007 1.85215118 -0.01140015 2.80628967 -0.01727295 C4.76920422 -0.02673751 6.73213476 -0.03326269 8.69506836 -0.03710938 C11.70649748 -0.04682288 14.71724665 -0.07783565 17.72851562 -0.109375 C19.63150634 -0.11590385 21.53450197 -0.12115479 23.4375 -0.125 C24.34273911 -0.1373468 25.24797821 -0.1496936 26.1806488 -0.16241455 C27.01814163 -0.15941345 27.85563446 -0.15641235 28.71850586 -0.15332031 C29.82650795 -0.15878876 29.82650795 -0.15878876 30.95689392 -0.16436768 C32.78515625 0.203125 32.78515625 0.203125 34.78515625 3.203125 C35.33222508 5.23399144 35.80134589 7.28621958 36.22705078 9.34594727 C36.49616776 10.63105194 36.76528473 11.91615662 37.04255676 13.24020386 C37.33443466 14.6666312 37.6262361 16.09307419 37.91796875 17.51953125 C38.22960958 19.01837053 38.54189636 20.51707562 38.8547821 22.01565552 C39.52711297 25.24080482 40.19567995 28.46670317 40.86148071 31.69320679 C41.91301969 36.78595649 42.97597428 41.87627698 44.04174805 46.96606445 C44.31099862 48.25218329 44.31099862 48.25218329 44.58568859 49.56428432 C44.95242993 51.31598047 45.3192028 53.06767002 45.68600655 54.8193531 C46.43612167 58.40310215 47.1849423 61.98712125 47.93382549 65.57112789 C51.27141976 81.54173452 54.61204961 97.51164936 58.01745224 113.4679594 C58.89660551 117.5884066 59.77082662 121.70975868 60.63311768 125.83377075 C61.44259862 129.70497599 62.26430864 133.57337246 63.09580421 137.43990707 C63.39915834 138.86116642 63.69794574 140.28340897 63.99191856 141.70663834 C64.3922629 143.64123206 64.8104819 145.57210165 65.22973633 147.50268555 C65.4590535 148.58583542 65.68837067 149.66898529 65.92463684 150.78495789 C66.20860825 151.58295303 66.49257965 152.38094818 66.78515625 153.203125 C67.77515625 153.533125 68.76515625 153.863125 69.78515625 154.203125 C69.9013884 153.59944092 70.01762054 152.99575684 70.13737488 152.3737793 C71.34367401 146.21322146 72.71774196 140.11243427 74.2109375 134.015625 C74.44040573 133.07364258 74.66987396 132.13166016 74.90629578 131.16113281 C75.39017175 129.17763985 75.87511615 127.19440726 76.36108398 125.21142578 C77.08875504 122.23947923 77.81119407 119.2662952 78.53320312 116.29296875 C80.89744836 106.60010857 83.36188704 96.95244567 86.07450867 87.35107422 C87.86111531 81.00734755 89.41354475 74.6213231 90.91015625 68.203125 C93.94889588 55.40824778 97.21041264 42.67637197 100.53515625 29.953125 C100.77349182 29.0367627 101.01182739 28.12040039 101.25738525 27.17626953 C101.94548529 24.53326298 102.6380078 21.89145659 103.33203125 19.25 C103.53494781 18.46977478 103.73786438 17.68954956 103.94692993 16.88568115 C107.84434367 2.14393758 107.84434367 2.14393758 109.78515625 0.203125 C112.45141655 0.11457339 115.09162739 0.08787827 117.7578125 0.10546875 C118.55545517 0.1068837 119.35309784 0.10829865 120.1749115 0.10975647 C122.7325306 0.11537184 125.29006343 0.12792688 127.84765625 0.140625 C129.5774727 0.14563802 131.30729051 0.15020127 133.03710938 0.15429688 C137.28649178 0.16534625 141.53580937 0.18262114 145.78515625 0.203125 C148.1913909 4.64570246 149.72198054 9.02896766 150.95703125 13.90234375 C151.15592957 14.66476883 151.35482788 15.42719391 151.55975342 16.21272278 C152.22490551 18.77034242 152.88007009 21.33041019 153.53515625 23.890625 C154.01191011 25.73319192 154.48913734 27.57563641 154.96679688 29.41796875 C159.7785033 48.02045339 164.48424698 66.65053943 169.20458984 85.27636719 C174.16263121 104.82817619 179.22402322 124.35138777 184.37765503 143.8525238 C185.77270243 149.13439188 185.77270243 149.13439188 186.22119141 151.60961914 C186.4072998 152.13547607 186.5934082 152.66133301 186.78515625 153.203125 C187.77515625 153.533125 188.76515625 153.863125 189.78515625 154.203125 C189.90197754 153.48479492 190.01879883 152.76646484 190.13916016 152.02636719 C193.00498158 134.59519823 196.30001201 117.29235513 200.78515625 100.203125 C201.85810274 95.81554026 202.7879908 91.50696716 203.28515625 87.015625 C203.78515625 83.203125 203.78515625 83.203125 204.66796875 80.73828125 C206.31478619 75.52719808 207.17849049 70.19866276 208.16015625 64.828125 C209.83481389 55.84695174 211.69742038 46.9973752 214.0859375 38.1796875 C214.93761177 35.06372206 214.93761177 35.06372206 214.78515625 31.203125 C215.44515625 31.203125 216.10515625 31.203125 216.78515625 31.203125 C216.86765625 29.924375 216.95015625 28.645625 217.03515625 27.328125 C217.55889259 22.05280973 218.59174408 16.93742901 219.72265625 11.765625 C219.97740723 10.57573975 219.97740723 10.57573975 220.23730469 9.36181641 C220.40649414 8.6094873 220.57568359 7.8571582 220.75 7.08203125 C220.90073975 6.4072876 221.05147949 5.73254395 221.20678711 5.03735352 C221.78515625 3.203125 221.78515625 3.203125 223.78515625 0.203125 C225.58218384 -0.15763855 225.58218384 -0.15763855 227.77587891 -0.13745117 C228.59657867 -0.13722458 229.41727844 -0.13699799 230.2628479 -0.13676453 C231.14935028 -0.12128067 232.03585266 -0.10579681 232.94921875 -0.08984375 C233.8564267 -0.08559891 234.76363464 -0.08135406 235.69833374 -0.07698059 C238.60257357 -0.06015633 241.50612535 -0.0224976 244.41015625 0.015625 C246.37629208 0.03066701 248.34243876 0.04435625 250.30859375 0.05664062 C255.13438064 0.08975943 259.9596517 0.14156714 264.78515625 0.203125 C265.87302004 3.46671637 265.71326445 4.38812245 264.92749023 7.62451172 C264.71176865 8.53100967 264.49604706 9.43750763 264.27378845 10.37147522 C264.02875076 11.36521652 263.78371307 12.35895782 263.53125 13.3828125 C263.15372337 14.95723366 263.15372337 14.95723366 262.76856995 16.5634613 C262.21785817 18.85722629 261.66356977 21.15013474 261.10620117 23.44229126 C259.7430243 29.05183567 258.40295748 34.66688172 257.06148148 40.28164864 C256.58886492 42.2587167 256.11532973 44.23556317 255.64169312 46.21238708 C252.27091026 60.29380222 249.0175666 74.40185236 245.78515625 88.515625 C245.49571136 89.77797974 245.20626648 91.04033447 244.90805054 92.34094238 C240.28129486 112.52954648 235.73865197 132.73653684 231.22647095 152.95101929 C226.21455282 175.40028772 221.04975942 197.81185565 215.78515625 220.203125 C206.92650641 221.2725454 198.12871668 221.35754733 189.22143555 221.33349609 C186.82789945 221.3280803 184.43454645 221.33350069 182.04101562 221.33984375 C180.50911417 221.33918383 178.97721283 221.33790446 177.4453125 221.3359375 C176.3796682 221.33897385 176.3796682 221.33897385 175.29249573 221.34207153 C168.66661053 221.31066043 168.66661053 221.31066043 165.78515625 220.203125 C163.45748203 215.99941485 162.32186706 210.99044664 162.78515625 206.203125 C162.12515625 205.873125 161.46515625 205.543125 160.78515625 205.203125 C160.07772685 202.86849382 159.4878272 200.58543183 158.94921875 198.2109375 C158.59816306 196.73695061 158.24557427 195.26332817 157.89160156 193.79003906 C157.70988403 193.02808228 157.5281665 192.26612549 157.34094238 191.4810791 C156.47489099 187.93146674 155.52094595 184.40733089 154.55859375 180.8828125 C154.36713272 180.17854126 154.17567169 179.47427002 153.97840881 178.74865723 C153.57994436 177.28415538 153.18093282 175.81980228 152.78140259 174.35559082 C148.97675055 160.40787887 145.25683881 146.43964365 141.59765625 132.453125 C137.62907101 117.29186816 133.65661198 102.11899864 129.15625 87.10498047 C128.33300697 84.34236683 127.78515625 82.10833995 127.78515625 79.203125 C125.56035394 80.02761284 125.56035394 80.02761284 124.99134827 82.41694641 C124.60516579 83.90112312 124.60516579 83.90112312 124.21118164 85.4152832 C123.91134872 86.552332 123.61151581 87.6893808 123.30259705 88.86088562 C122.97844315 90.12495743 122.65428925 91.38902924 122.3203125 92.69140625 C121.97034087 94.03298073 121.6197435 95.3743921 121.26856995 96.71565247 C120.30151612 100.4201407 119.34590072 104.12748997 118.39347076 107.83576202 C117.77936028 110.22568103 117.16323262 112.61507188 116.54656982 115.0043335 C113.64980811 126.2321884 110.77623482 137.4659141 107.90905762 148.70135498 C106.99298207 152.29047151 106.07610918 155.87938397 105.15897179 159.46822929 C104.70398901 161.24880622 104.24919593 163.02943164 103.79459572 164.81010628 C102.688425 169.14158657 101.57884392 173.47213372 100.46151733 177.80075073 C98.67198521 184.7434473 96.886624 191.68320183 95.25899029 198.66595364 C94.80142037 200.62626126 94.33279712 202.5839787 93.86378479 204.5415802 C93.31107856 206.85793724 92.77829357 209.17918041 92.2698822 211.50566101 C90.51755945 218.73632679 90.51755945 218.73632679 87.15625 220.87866211 C82.95856174 221.28268352 78.84177752 221.48936029 74.625 221.46875 C73.75750626 221.47066345 72.89001251 221.4725769 71.99623108 221.47454834 C70.16992908 221.47590419 68.34361725 221.47224981 66.51733398 221.46386719 C63.72813226 221.45314605 60.93957265 221.4637895 58.15039062 221.4765625 C56.37109233 221.47524105 54.59179444 221.47267897 52.8125 221.46875 C51.98217758 221.47279846 51.15185516 221.47684692 50.29637146 221.48101807 C46.06590169 221.446873 42.56916008 221.3338965 38.78515625 219.203125 C36.99037539 215.61356328 36.56060545 211.86792026 35.94921875 207.94140625 C34.71799551 200.48074614 33.04277655 193.13090924 31.34765625 185.765625 C31.04460703 184.43692073 30.7418716 183.10814485 30.43945312 181.77929688 C29.55983288 177.91938592 28.6733048 174.06108322 27.78515625 170.203125 C27.52154297 169.05803467 27.25792969 167.91294434 26.98632812 166.7331543 C25.82720948 161.70521647 24.66376751 156.6783012 23.49609375 151.65234375 C19.84946319 135.93726519 16.29793178 120.20158391 12.76904297 104.4597168 C12.48380013 103.18832603 12.48380013 103.18832603 12.1927948 101.89125061 C11.83387723 100.2912025 11.475384 98.69105913 11.11738586 97.09080505 C10.37577719 93.78482888 9.61051623 90.4890105 8.78515625 87.203125 C8.13606286 84.47468482 7.4901479 81.74561739 6.84765625 79.015625 C6.67814453 78.29826172 6.50863281 77.58089844 6.33398438 76.84179688 C5.46707909 73.15992157 4.61930238 69.47506506 3.8046875 65.78125 C2.72321277 60.88896504 1.57308551 56.01411204 0.41015625 51.140625 C0.08253296 49.76535645 0.08253296 49.76535645 -0.25170898 48.36230469 C-1.56114152 42.88415414 -2.90072016 37.41474446 -4.27734375 31.953125 C-4.92442223 29.37009334 -5.57048508 26.78683387 -6.21484375 24.203125 C-6.39966309 23.46481445 -6.58448242 22.72650391 -6.77490234 21.96582031 C-7.34577239 19.6717058 -7.90644 17.37530221 -8.46484375 15.078125 C-8.72793335 14.02963379 -8.72793335 14.02963379 -8.99633789 12.95996094 C-9.95621294 8.96556411 -10.48952878 5.31091481 -10.21484375 1.203125 C-8.04761836 -0.96410039 -3.01248528 0.01411133 0 0 Z " fill="#27538A" transform="translate(14.21484375,3.796875)"/>
<path d="M0 0 C1 1 1 1 1.09765625 3.72265625 C1.06510417 6.81510417 1.03255208 9.90755208 1 13 C5.95 13 10.9 13 16 13 C16 16.96 16 20.92 16 25 C12.16531667 26.67152863 9.36272584 27.09211853 5.27734375 26.55859375 C4.47417725 26.45732178 3.67101074 26.3560498 2.84350586 26.25170898 C2.23514893 26.16864502 1.62679199 26.08558105 1 26 C1.06878614 29.95159258 1.15670428 33.90224623 1.26245117 37.85302734 C1.31209959 39.85882336 1.34654164 41.86497687 1.38085938 43.87109375 C1.4340332 45.75634766 1.4340332 45.75634766 1.48828125 47.6796875 C1.51446533 48.84226074 1.54064941 50.00483398 1.56762695 51.20263672 C1.71031006 52.1257666 1.85299316 53.04889648 2 54 C5.45214853 56.30143236 6.23479324 56.13833854 10.1875 55.625 C11.08855469 55.51414063 11.98960937 55.40328125 12.91796875 55.2890625 C13.60503906 55.19367188 14.29210937 55.09828125 15 55 C18.62870159 63.261959 18.62870159 63.261959 17 68 C8.98993925 71.50069322 1.78832145 71.82826819 -6.4375 68.6875 C-11.18584681 65.56053991 -13.27893494 63.29191504 -14.60742188 57.64135742 C-15.47444132 51.80784789 -15.19989618 45.8822306 -15.125 40 C-15.11494978 38.63932951 -15.10582754 37.27865183 -15.09765625 35.91796875 C-15.0742082 32.61179353 -15.04138856 29.3059912 -15 26 C-16.7015625 26.0309375 -16.7015625 26.0309375 -18.4375 26.0625 C-22 26 -22 26 -23 25 C-23.09851171 23.16884117 -23.12972629 21.33380067 -23.125 19.5 C-23.12757813 18.4996875 -23.13015625 17.499375 -23.1328125 16.46875 C-23 14 -23 14 -22 13 C-19.66702567 12.95907063 -17.33294775 12.95758277 -15 13 C-15 9.37 -15 5.74 -15 2 C-4.45475035 -0.24965326 -4.45475035 -0.24965326 0 0 Z " fill="#2B558A" transform="translate(309,135)"/>
<path d="M0 0 C0.66 0 1.32 0 2 0 C1.41688891 5.96926446 0.54001436 11.6975517 -0.80078125 17.5390625 C-0.98933685 18.37827744 -1.17789246 19.21749237 -1.37216187 20.08213806 C-2.01392903 22.93091649 -2.66311801 25.77794844 -3.3125 28.625 C-3.77800587 30.68215255 -4.24324631 32.73936518 -4.70825195 34.79663086 C-13.03473867 71.5546288 -21.53519041 108.27367001 -30 145 C-36.54427827 145.66579329 -43.01146163 146.15193778 -49.58984375 146.1328125 C-50.71755943 146.13424759 -50.71755943 146.13424759 -51.86805725 146.13571167 C-53.43327927 146.13638392 -54.99850425 146.13459745 -56.5637207 146.13037109 C-58.9572568 146.1249553 -61.3506098 146.13037569 -63.74414062 146.13671875 C-65.27604208 146.13605883 -66.80794342 146.13477946 -68.33984375 146.1328125 C-69.40548805 146.13584885 -69.40548805 146.13584885 -70.49266052 146.13894653 C-77.11854572 146.10753543 -77.11854572 146.10753543 -80 145 C-82.32767422 140.79628985 -83.46328919 135.78732164 -83 131 C-83.66 130.67 -84.32 130.34 -85 130 C-85.6328125 127.05859375 -85.6328125 127.05859375 -86.125 123.4375 C-86.29257813 122.23996094 -86.46015625 121.04242188 -86.6328125 119.80859375 C-86.81457031 118.41833984 -86.81457031 118.41833984 -87 117 C-86.34 117 -85.68 117 -85 117 C-84.82871582 117.57443848 -84.65743164 118.14887695 -84.48095703 118.74072266 C-83.69662446 121.36911062 -82.91082421 123.99705763 -82.125 126.625 C-81.72087891 127.98044922 -81.72087891 127.98044922 -81.30859375 129.36328125 C-81.04433594 130.24628906 -80.78007812 131.12929687 -80.5078125 132.0390625 C-80.26691895 132.84553223 -80.02602539 133.65200195 -79.77783203 134.48291016 C-78.89616855 137.33600196 -77.94432322 140.16703035 -77 143 C-63.14 143 -49.28 143 -35 143 C-34.67 141.35 -34.34 139.7 -34 138 C-33.34 138.33 -32.68 138.66 -32 139 C-31.86424561 138.39639648 -31.72849121 137.79279297 -31.58862305 137.17089844 C-30.95636624 134.36360328 -30.32196996 131.55679578 -29.6875 128.75 C-29.4611084 127.74396729 -29.2347168 126.73793457 -29.00146484 125.70141602 C-27.60522196 119.53475955 -26.12003933 113.42013764 -24.3828125 107.33984375 C-23.84627141 104.93625114 -23.84627141 104.93625114 -24.5546875 102.31640625 C-24.70164063 101.55199219 -24.84859375 100.78757812 -25 100 C-24.34 99.34 -23.68 98.68 -23 98 C-21.37384508 94.13788206 -20.69675928 90.30232258 -20.0625 86.1875 C-19.33973814 81.52713153 -18.19815804 77.3375599 -16.59765625 72.9140625 C-15.86134397 70.55593819 -15.76262759 68.45284826 -16 66 C-15.34 66 -14.68 66 -14 66 C-13.93941406 65.443125 -13.87882812 64.88625 -13.81640625 64.3125 C-13.25529435 59.20206543 -12.64909148 54.10000447 -12 49 C-11.34 49 -10.68 49 -10 49 C-9.93941406 48.28714844 -9.87882812 47.57429688 -9.81640625 46.83984375 C-8.53991353 32.24855004 -8.53991353 32.24855004 -7 28.6875 C-5.47126894 24.57903528 -5.32090674 20.34913081 -5 16 C-4.34 16 -3.68 16 -3 16 C-2.92652344 14.89591797 -2.92652344 14.89591797 -2.8515625 13.76953125 C-2.77679688 12.79371094 -2.70203125 11.81789063 -2.625 10.8125 C-2.55539062 9.84957031 -2.48578125 8.88664062 -2.4140625 7.89453125 C-1.99784147 4.98491062 -1.20125904 2.67109226 0 0 Z " fill="#354D76" transform="translate(260,79)"/>
<path d="M0 0 C1.98856729 3.47141512 2.74305273 6.87680849 3.55297852 10.7800293 C3.69502968 11.45676036 3.83708084 12.13349142 3.98343658 12.83072948 C4.45376534 15.07751451 4.91626332 17.32583966 5.37890625 19.57421875 C5.71010826 21.16247625 6.04186041 22.75061912 6.37413025 24.33865356 C7.26016946 28.57921011 8.13988809 32.82105422 9.0184021 37.0631752 C10.46160284 44.02410536 11.91639687 50.98262885 13.37060165 57.94126701 C13.73054734 59.66387514 14.09028064 61.38652766 14.4498024 63.10922432 C16.59612477 73.39050163 18.77371054 83.66252997 21.05859375 93.9140625 C21.27544327 94.8878334 21.49229279 95.86160431 21.7157135 96.86488342 C22.66924011 101.1329802 23.63381076 105.39828241 24.61157227 109.66088867 C24.93906539 111.11374687 25.26646526 112.56662609 25.59375 114.01953125 C26.00657227 115.81547729 26.00657227 115.81547729 26.42773438 117.64770508 C27.02733449 121.16012369 27.1020221 124.44367974 27 128 C26.34 127.67 25.68 127.34 25 127 C25 125.68 25 124.36 25 123 C24.34 123 23.68 123 23 123 C22.90058105 122.28344238 22.80116211 121.56688477 22.69873047 120.82861328 C21.23150927 110.75892511 19.19883125 100.83401134 17.125 90.875 C16.78226055 89.21620604 16.43981146 87.55735207 16.09765625 85.8984375 C15.41622097 82.59769233 14.72990348 79.29801664 14.04003906 75.99902344 C13.32083515 72.55686426 12.61664263 69.11201384 11.92089844 65.66503906 C11.56969164 63.94595737 11.21845567 62.22688165 10.8671875 60.5078125 C10.70912628 59.71196747 10.55106506 58.91612244 10.38821411 58.09616089 C9.63254736 54.42652677 8.72466502 51.3114122 7 48 C6.67163086 45.81518555 6.67163086 45.81518555 6.52734375 43.44921875 C6.0508509 37.76362685 4.8749309 32.35685096 3.5625 26.8125 C3.23668945 25.39420898 3.23668945 25.39420898 2.90429688 23.94726562 C1.98102571 19.96860458 1.03388234 16.03221147 -0.18359375 12.1328125 C-0.97555524 9.09380239 -1.09737801 7.13295709 -0.625 4.0625 C-0.51414063 3.29035156 -0.40328125 2.51820312 -0.2890625 1.72265625 C-0.14597656 0.86994141 -0.14597656 0.86994141 0 0 Z " fill="#384F76" transform="translate(53,31)"/>
<path d="M0 0 C1 1 1 1 1.09765625 3.72265625 C1.06510417 6.81510417 1.03255208 9.90755208 1 13 C5.95 13 10.9 13 16 13 C16 15.31 16 17.62 16 20 C15.67 20 15.34 20 15 20 C15 18.02 15 16.04 15 14 C7.08 14.495 7.08 14.495 -1 15 C-1.66 13.02 -2.32 11.04 -3 9 C-2.34 9 -1.68 9 -1 9 C-1 7.02 -1 5.04 -1 3 C-2.98 3 -4.96 3 -7 3 C-7 3.66 -7 4.32 -7 5 C-8.32 5 -9.64 5 -11 5 C-11.66 8.3 -12.32 11.6 -13 15 C-15.31 15.33 -17.62 15.66 -20 16 C-20.33 18.64 -20.66 21.28 -21 24 C-18.36 24 -15.72 24 -13 24 C-13.33 34.23 -13.66 44.46 -14 55 C-14.33 55 -14.66 55 -15 55 C-15 45.43 -15 35.86 -15 26 C-17.31 26 -19.62 26 -22 26 C-23 25 -23 25 -23.1328125 22.53125 C-23.13023437 21.5309375 -23.12765625 20.530625 -23.125 19.5 C-23.12757813 18.4996875 -23.13015625 17.499375 -23.1328125 16.46875 C-23 14 -23 14 -22 13 C-19.66702567 12.95907063 -17.33294775 12.95758277 -15 13 C-15 9.37 -15 5.74 -15 2 C-4.45475035 -0.24965326 -4.45475035 -0.24965326 0 0 Z " fill="#455C81" transform="translate(309,135)"/>
<path d="M0 0 C2.12075445 4.24150889 2.19091765 4.61533025 1.1875 8.875 C-0.02270529 14.59456893 -0.39813596 20.19787264 -0.65625 26.03125 C-1 29 -1 29 -3 32 C-3.66 32 -4.32 32 -5 32 C-5 35.96 -5 39.92 -5 44 C-5.66 44 -6.32 44 -7 44 C-7.02578125 44.53625 -7.0515625 45.0725 -7.078125 45.625 C-7.49353433 51.36520172 -8.54995626 56.80453189 -9.9375 62.375 C-10.10733398 63.06464844 -10.27716797 63.75429687 -10.45214844 64.46484375 C-11.32177247 67.85057998 -12.26006747 70.95706867 -14 74 C-15.76967724 69.2808607 -14.76691954 64.12995995 -13.10546875 59.515625 C-11.46869794 54.31034682 -10.60514987 48.98724459 -9.625 43.625 C-7.95034236 34.64382674 -6.08773587 25.7942502 -3.69921875 16.9765625 C-2.84754448 13.86059706 -2.84754448 13.86059706 -3 10 C-2.34 10 -1.68 10 -1 10 C-0.67 6.7 -0.34 3.4 0 0 Z " fill="#39547D" transform="translate(232,25)"/>
<path d="M0 0 C0.66 0 1.32 0 2 0 C2.17128418 0.57443848 2.34256836 1.14887695 2.51904297 1.74072266 C3.30337554 4.36911062 4.08917579 6.99705763 4.875 9.625 C5.14441406 10.52863281 5.41382813 11.43226563 5.69140625 12.36328125 C5.95566406 13.24628906 6.21992188 14.12929687 6.4921875 15.0390625 C6.73308105 15.84553223 6.97397461 16.65200195 7.22216797 17.48291016 C8.10383145 20.33600196 9.05567678 23.16703035 10 26 C24.85 26.33 39.7 26.66 55 27 C55 27.33 55 27.66 55 28 C46.87515917 29.18077272 38.77749362 29.15225463 30.5871582 29.13037109 C28.1758812 29.12497399 25.76478724 29.13036107 23.35351562 29.13671875 C21.81249959 29.13605857 20.27148367 29.13477865 18.73046875 29.1328125 C18.01376511 29.13483673 17.29706146 29.13686096 16.55863953 29.13894653 C9.87353588 29.10755942 9.87353588 29.10755942 7 28 C4.67232578 23.79628985 3.53671081 18.78732164 4 14 C3.34 13.67 2.68 13.34 2 13 C1.3671875 10.05859375 1.3671875 10.05859375 0.875 6.4375 C0.70742187 5.23996094 0.53984375 4.04242188 0.3671875 2.80859375 C0.24601563 1.88175781 0.12484375 0.95492187 0 0 Z " fill="#4B5C7F" transform="translate(173,196)"/>
<path d="M0 0 C0.66 0 1.32 0 2 0 C1.30091694 5.83960426 -0.02338449 11.40266316 -1.50390625 17.08984375 C-1.7466478 18.03436905 -1.98938934 18.97889435 -2.23948669 19.95204163 C-3.01032408 22.94810931 -3.78633058 25.94280972 -4.5625 28.9375 C-5.08823336 30.97712523 -5.6136276 33.0168379 -6.13867188 35.05664062 C-7.42185844 40.03878106 -8.70968042 45.01970239 -10 50 C-10.66 50 -11.32 50 -12 50 C-11.85769192 48.58297487 -11.71099254 47.1663904 -11.5625 45.75 C-11.48128906 44.96109375 -11.40007812 44.1721875 -11.31640625 43.359375 C-11 41 -11 41 -10.46875 38.95703125 C-9.97001543 36.8748144 -9.90044503 35.0743368 -9.9375 32.9375 C-10.04651163 26.06976744 -10.04651163 26.06976744 -8 23 C-7.01 23 -6.02 23 -5 23 C-4.814375 21.1128125 -4.814375 21.1128125 -4.625 19.1875 C-4.20198875 15.43997783 -3.68016139 11.72055875 -3.0625 8 C-2.90910156 7.071875 -2.75570312 6.14375 -2.59765625 5.1875 C-2.40042969 4.465625 -2.20320313 3.74375 -2 3 C-1.34 2.67 -0.68 2.34 0 2 C0 1.34 0 0.68 0 0 Z " fill="#334D77" transform="translate(125,130)"/>
<path d="M0 0 C2.25018846 3.89038608 3.24404341 8.14817002 4.3828125 12.45703125 C4.60194305 13.27821945 4.82107361 14.09940765 5.04684448 14.94548035 C5.50800371 16.68056593 5.96678231 18.41628577 6.42333984 20.15258789 C7.1204114 22.79510513 7.83129347 25.43364949 8.54296875 28.07226562 C8.99043627 29.7627953 9.43707784 31.45354385 9.8828125 33.14453125 C10.09527618 33.92705765 10.30773987 34.70958405 10.52664185 35.51582336 C11.72927658 40.15467789 12.21521743 44.20763996 12 49 C10.03125 47.796875 10.03125 47.796875 8 46 C7.53125 43.828125 7.53125 43.828125 7.5 41.25 C7.22711366 36.37702967 6.37841038 31.83107035 5.125 27.125 C4.63386719 25.27261719 4.63386719 25.27261719 4.1328125 23.3828125 C3.17165254 20.0310752 3.17165254 20.0310752 1.37890625 17.54296875 C-0.48437735 14.10671486 -0.32924047 10.98541775 -0.1875 7.1875 C-0.16719727 6.14819336 -0.16719727 6.14819336 -0.14648438 5.08789062 C-0.11138845 3.39158735 -0.05758943 1.69568864 0 0 Z " fill="#39517A" transform="translate(179,76)"/>
<path d="M0 0 C0.66 0 1.32 0 2 0 C1.39589586 6.35005316 0.37058916 12.41850884 -1.06640625 18.62890625 C-1.36393044 19.94156715 -1.36393044 19.94156715 -1.66746521 21.28074646 C-2.29452098 24.0424076 -2.92838602 26.80245196 -3.5625 29.5625 C-3.9919899 31.4484645 -4.4210306 33.33453136 -4.84960938 35.22070312 C-5.89455405 39.81500086 -6.94560334 44.40786271 -8 49 C-8.33 49 -8.66 49 -9 49 C-9.90742129 44.68170438 -9.96546421 41.27507022 -9.1875 36.9375 C-9.01605469 35.93589844 -8.84460938 34.93429688 -8.66796875 33.90234375 C-8 31 -8 31 -6.96484375 28.4609375 C-5.92122327 25.7990715 -5.60238978 23.5298723 -5.375 20.6875 C-5.30023438 19.80449219 -5.22546875 18.92148438 -5.1484375 18.01171875 C-5.09945312 17.34785156 -5.05046875 16.68398437 -5 16 C-4.34 16 -3.68 16 -3 16 C-2.95101563 15.26394531 -2.90203125 14.52789062 -2.8515625 13.76953125 C-2.73941406 12.30580078 -2.73941406 12.30580078 -2.625 10.8125 C-2.55539062 9.84957031 -2.48578125 8.88664062 -2.4140625 7.89453125 C-1.99784147 4.98491062 -1.20125904 2.67109226 0 0 Z " fill="#3C537B" transform="translate(260,79)"/>
<path d="M0 0 C1.875 0.25 1.875 0.25 4 1 C6.00666838 4.21523003 6.77229948 7.64761039 7.625 11.3125 C7.88539062 12.40175781 8.14578125 13.49101563 8.4140625 14.61328125 C9 18 9 18 8.984375 21.4296875 C9.00470039 26.07403873 10.03469806 30.3489415 11.109375 34.83398438 C11.48807661 36.53986297 11.75317196 38.27011196 12 40 C11.34 40.66 10.68 41.32 10 42 C9.29388068 39.1977502 8.61342303 36.39059161 7.94921875 33.578125 C5.74624353 24.27452776 3.52727299 14.97749408 1.16870117 5.71191406 C0 1.10031526 0 1.10031526 0 0 Z " fill="#395078" transform="translate(8,27)"/>
<path d="M0 0 C0.99 0.33 1.98 0.66 3 1 C2.48379825 5.98995023 1.71380515 10.26183283 0 15 C-0.67258667 17.33163378 -1.33847444 19.6652039 -2 22 C-2.25007813 22.79921875 -2.50015625 23.5984375 -2.7578125 24.421875 C-4.27722879 29.28990777 -5.39022158 33.91851315 -6 39 C-6.32483418 40.33542939 -6.6550855 41.66961551 -7 43 C-7 43.66 -7 44.32 -7 45 C-7.66 45 -8.32 45 -9 45 C-9.19653846 38.68620182 -8.64855508 33.33369858 -7.03125 27.24609375 C-6.73160339 26.06660912 -6.73160339 26.06660912 -6.42590332 24.86329651 C-5.79395226 22.38533199 -5.1472799 19.91149937 -4.5 17.4375 C-4.06542132 15.74439313 -3.63181857 14.05103544 -3.19921875 12.35742188 C-2.14405918 8.23529914 -1.07569189 4.11681019 0 0 Z " fill="#39527B" transform="translate(95,112)"/>
<path d="M0 0 C1.32 0.66 2.64 1.32 4 2 C3.95875 3.175625 3.9175 4.35125 3.875 5.5625 C3.875 9.67296136 4.71671764 13.07885945 6 17 C6.309375 18.27875 6.61875 19.5575 6.9375 20.875 C7.288125 21.90625 7.63875 22.9375 8 24 C8.99 24.33 9.98 24.66 11 25 C10.34 29.29 9.68 33.58 9 38 C6.29725723 32.59451445 4.92908498 26.91341765 3.3762207 21.10058594 C2.81364666 19.00427279 2.23625486 16.91240284 1.65820312 14.8203125 C1.29856244 13.4846215 0.93980821 12.14869143 0.58203125 10.8125 C0.25436768 9.60207031 -0.0732959 8.39164063 -0.41088867 7.14453125 C-0.95782595 4.2251147 -1.03840732 2.72957618 0 0 Z " fill="#354F7A" transform="translate(156,129)"/>
<path d="M0 0 C0.66 0.33 1.32 0.66 2 1 C0.21214795 10.64654236 -2.22341637 20.11748841 -4.625 29.625 C-5.04969922 31.31374676 -5.4741802 33.00254842 -5.8984375 34.69140625 C-6.92977588 38.79490831 -7.96406728 42.89765549 -9 47 C-11 44 -11 44 -10.7578125 41.6953125 C-10.54898438 40.84710938 -10.34015625 39.99890625 -10.125 39.125 C-9.49035577 36.49805488 -8.9840905 34.32349322 -9.1171875 31.6171875 C-8.9863806 28.69583343 -8.04564626 26.65954339 -6.83300781 24.02978516 C-5.20452835 20.06167899 -4.35658134 15.85316156 -3.375 11.6875 C-2.94734772 9.89925164 -2.51775557 8.11146574 -2.0859375 6.32421875 C-1.9007959 5.54135498 -1.7156543 4.75849121 -1.52490234 3.9519043 C-1 2 -1 2 0 0 Z " fill="#334A70" transform="translate(137,83)"/>
<path d="M0 0 C5.96313166 -0.02464574 11.92623395 -0.042834 17.8894043 -0.05493164 C19.91968298 -0.05997278 21.94995802 -0.06680557 23.98022461 -0.07543945 C26.89177347 -0.08751467 29.8032745 -0.09323034 32.71484375 -0.09765625 C33.6283812 -0.10281754 34.54191864 -0.10797882 35.48313904 -0.11329651 C37.65575427 -0.11349168 39.82827296 -0.06211805 42 0 C43 1 43 1 43.0625 4.0625 C43.041875 5.031875 43.02125 6.00125 43 7 C42.34 5.68 41.68 4.36 41 3 C35.66147206 2.9505269 30.32307786 2.91424575 24.984375 2.89013672 C23.16859614 2.88008509 21.35283344 2.86644172 19.53710938 2.84912109 C16.92574065 2.82483594 14.31458613 2.81350852 11.703125 2.8046875 C10.89256653 2.79436493 10.08200806 2.78404236 9.24688721 2.77340698 C3.82368949 2.77214732 3.82368949 2.77214732 -1 5 C-0.67 3.35 -0.34 1.7 0 0 Z " fill="#364D72" transform="translate(5,4)"/>
<path d="M0 0 C4.62 0 9.24 0 14 0 C14.33 3.63 14.66 7.26 15 11 C9.72 11 4.44 11 -1 11 C-1 20.24 -1 29.48 -1 39 C-1.33 39 -1.66 39 -2 39 C-2.33 29.43 -2.66 19.86 -3 10 C-0.11584117 8.55792059 2.41721528 8.90605113 5.625 8.9375 C6.81351562 8.94652344 8.00203125 8.95554688 9.2265625 8.96484375 C10.14179688 8.97644531 11.05703125 8.98804688 12 9 C11.67 6.69 11.34 4.38 11 2 C7.37 1.67 3.74 1.34 0 1 C0 0.67 0 0.34 0 0 Z " fill="#274370" transform="translate(310,149)"/>
<path d="M0 0 C11.88 0 23.76 0 36 0 C43.3719462 23.95882514 43.3719462 23.95882514 42 28 C37.26717557 19.90839695 37.26717557 19.90839695 36.5625 14.875 C35.93388545 10.54454422 34.94925366 6.27164148 34 2 C22.78 1.67 11.56 1.34 0 1 C0 0.67 0 0.34 0 0 Z " fill="#304971" transform="translate(125,5)"/>
<path d="M0 0 C1.47075246 4.41225737 2.36884358 7.48281619 1 12 C-5.79839044 14.97114841 -11.70804988 15.58988421 -19 14 C-19.99 13.34 -20.98 12.68 -22 12 C-20.58847656 12.06960937 -20.58847656 12.06960937 -19.1484375 12.140625 C-9.71747814 12.62002348 -9.71747814 12.62002348 -2 8 C-2.33 6.35 -2.66 4.7 -3 3 C-3.63808594 2.95101562 -4.27617187 2.90203125 -4.93359375 2.8515625 C-5.75988281 2.77679688 -6.58617187 2.70203125 -7.4375 2.625 C-8.26121094 2.55539063 -9.08492188 2.48578125 -9.93359375 2.4140625 C-10.61550781 2.27742187 -11.29742187 2.14078125 -12 2 C-12.33 1.34 -12.66 0.68 -13 0 C-12.05125 0.020625 -11.1025 0.04125 -10.125 0.0625 C-0.54508197 -0.12909836 -0.54508197 -0.12909836 0 0 Z " fill="#3E547B" transform="translate(325,191)"/>
<path d="M0 0 C1.32 0.33 2.64 0.66 4 1 C3.5020163 4.73487777 3.12508244 6.81237635 1 10 C0.45748578 12.01525571 -0.01227879 14.05052603 -0.4375 16.09375 C-0.69273437 17.28871094 -0.94796875 18.48367187 -1.2109375 19.71484375 C-1.60152344 21.58849609 -1.60152344 21.58849609 -2 23.5 C-2.51490074 25.96999416 -3.03547492 28.43881439 -3.5625 30.90625 C-3.79066406 32.00259766 -4.01882812 33.09894531 -4.25390625 34.22851562 C-5 37 -5 37 -7 40 C-7.46885406 32.14918836 -5.71415969 24.82536851 -4.0625 17.1875 C-3.78120458 15.85236009 -3.50060011 14.5170744 -3.22070312 13.18164062 C-1.1750372 3.52511161 -1.1750372 3.52511161 0 0 Z " fill="#394F76" transform="translate(212,118)"/>
<path d="M0 0 C0.66 0 1.32 0 2 0 C2.19335938 0.65226563 2.38671875 1.30453125 2.5859375 1.9765625 C2.84632812 2.85054687 3.10671875 3.72453125 3.375 4.625 C3.64828125 5.54539063 3.9215625 6.46578125 4.203125 7.4140625 C4.78300928 9.29584384 5.43360176 11.15627136 6.125 13 C6.92047989 15.72735961 7.21705258 17.99855357 7.4375 20.8125 C7.72489333 24.41305038 8.37690813 27.42401529 9.625 30.8125 C10.88357517 34.24166133 11.26323028 36.43998739 10 40 C9.67 40 9.34 40 9 40 C9 37.03 9 34.06 9 31 C8.01 30.67 7.02 30.34 6 30 C5.10864258 27.56323242 5.10864258 27.56323242 4.39453125 24.35546875 C4.13349609 23.20369141 3.87246094 22.05191406 3.60351562 20.86523438 C3.34248047 19.65158203 3.08144531 18.43792969 2.8125 17.1875 C2.40354492 15.38442383 2.40354492 15.38442383 1.98632812 13.54492188 C0 4.61889098 0 4.61889098 0 0 Z " fill="#324C76" transform="translate(44,179)"/>
<path d="M0 0 C-0.64207751 8.2384875 -2.57005867 16.06039302 -4.5625 24.0625 C-4.89570151 25.41849231 -5.22838782 26.77461133 -5.56054688 28.13085938 C-6.36865514 31.42185101 -7.18193146 34.7114728 -8 38 C-8.33 38 -8.66 38 -9 38 C-9.74217284 26.31764974 -7.01999149 14.91140547 -3 4 C-3.66 3.67 -4.32 3.34 -5 3 C-2.25 0 -2.25 0 0 0 Z " fill="#374F77" transform="translate(271,41)"/>
<path d="M0 0 C0.66 0 1.32 0 2 0 C2 2.31 2 4.62 2 7 C1.34 7 0.68 7 0 7 C-0.02578125 7.53625 -0.0515625 8.0725 -0.078125 8.625 C-0.49353433 14.36520172 -1.54995626 19.80453189 -2.9375 25.375 C-3.10733398 26.06464844 -3.27716797 26.75429687 -3.45214844 27.46484375 C-4.32177247 30.85057998 -5.26006747 33.95706867 -7 37 C-8.82205146 32.14119612 -7.65533165 26.94442026 -6.05078125 22.18359375 C-4.55362526 17.64760069 -3.71598442 13.01859592 -2.78125 8.33984375 C-2.09036662 5.38631732 -1.21534139 2.7711879 0 0 Z " fill="#3E547A" transform="translate(225,62)"/>
<path d="M0 0 C1.875 0.0625 1.875 0.0625 4 1 C6.9965889 5.99431484 8.31077515 11.27659622 9.6875 16.875 C9.91244141 17.73480469 10.13738281 18.59460938 10.36914062 19.48046875 C11.69791459 24.80364226 12.23539196 29.51600364 12 35 C10.59316737 32.34285602 9.56579332 29.81826794 8.78125 26.91796875 C8.46607422 25.76651367 8.46607422 25.76651367 8.14453125 24.59179688 C7.93183594 23.79837891 7.71914062 23.00496094 7.5 22.1875 C7.07313055 20.61843138 6.64605005 19.04942016 6.21875 17.48046875 C5.91324219 16.34617432 5.91324219 16.34617432 5.6015625 15.18896484 C5.04252036 13.15472303 4.44724535 11.13467192 3.84375 9.11328125 C3 6 3 6 3 3 C2.01 3.33 1.02 3.66 0 4 C-0.33 3.01 -0.66 2.02 -1 1 C-0.67 0.67 -0.34 0.34 0 0 Z " fill="#3A5178" transform="translate(139,80)"/>
<path d="M0 0 C13.53 0 27.06 0 41 0 C41 0.33 41 0.66 41 1 C22.19 1.495 22.19 1.495 3 2 C0.85670686 6.28658628 0.31474093 9.75763041 -0.33984375 14.44140625 C-1.05213032 17.20204356 -1.81597465 18.23254625 -4 20 C-3.41065754 12.81002196 -1.95852527 7.18125933 0 0 Z " fill="#2D466D" transform="translate(237,5)"/>
<path d="M0 0 C0.99 0.33 1.98 0.66 3 1 C2.67386719 2.22074219 2.34773438 3.44148438 2.01171875 4.69921875 C1.57002839 6.36190372 1.12864305 8.02466974 0.6875 9.6875 C0.45820801 10.54786865 0.22891602 11.4082373 -0.00732422 12.29467773 C-1.61329164 18.37457346 -3.01577527 24.45703627 -4.2265625 30.62890625 C-5 33 -5 33 -8 35 C-7.44424854 28.71189075 -6.35134551 22.98202463 -4.5625 16.9375 C-4.12528918 15.42607388 -3.68908367 13.91435659 -3.25390625 12.40234375 C-3.0439502 11.67644043 -2.83399414 10.95053711 -2.61767578 10.20263672 C-1.66899726 6.81964163 -0.83295512 3.41317887 0 0 Z " fill="#3D5278" transform="translate(104,77)"/>
<path d="M0 0 C0.66 0 1.32 0 2 0 C2.17128418 0.57443848 2.34256836 1.14887695 2.51904297 1.74072266 C3.30337554 4.36911062 4.08917579 6.99705763 4.875 9.625 C5.14441406 10.52863281 5.41382813 11.43226563 5.69140625 12.36328125 C6.45387679 14.91104868 7.22610009 17.4556859 8 20 C8.35320312 21.18335938 8.70640625 22.36671875 9.0703125 23.5859375 C9.74830316 26.15496368 9.74830316 26.15496368 12 27 C11.67 27.66 11.34 28.32 11 29 C9.109375 28.765625 9.109375 28.765625 7 28 C4.67232578 23.79628985 3.53671081 18.78732164 4 14 C3.34 13.67 2.68 13.34 2 13 C1.3671875 10.05859375 1.3671875 10.05859375 0.875 6.4375 C0.70742187 5.23996094 0.53984375 4.04242188 0.3671875 2.80859375 C0.24601563 1.88175781 0.12484375 0.95492187 0 0 Z " fill="#3D5377" transform="translate(173,196)"/>
<path d="M0 0 C4.06237192 3.48203307 6.06593556 7.80171585 6.51171875 13.0859375 C6.58382777 14.51500708 6.6422414 15.94482825 6.6875 17.375 C6.72166016 18.11105469 6.75582031 18.84710938 6.79101562 19.60546875 C6.87272789 21.40313853 6.93805781 23.20154046 7 25 C6.34 25 5.68 25 5 25 C4.16137685 21.39704301 3.33001323 17.79244935 2.5 14.1875 C2.26152344 13.16333984 2.02304687 12.13917969 1.77734375 11.08398438 C1.55175781 10.10107422 1.32617188 9.11816406 1.09375 8.10546875 C0.88427734 7.19949951 0.67480469 6.29353027 0.45898438 5.36010742 C0 3 0 3 0 0 Z " fill="#3D547B" transform="translate(25,96)"/>
<path d="M0 0 C0.33 0 0.66 0 1 0 C1.20413361 5.73842251 1.27141454 10.60539047 -1 16 C-0.34 16.33 0.32 16.66 1 17 C0.01 17.66 -0.98 18.32 -2 19 C-2.70491267 21.32206525 -3.37212429 23.65593068 -4 26 C-4.66 26.66 -5.32 27.32 -6 28 C-5.35521919 21.65594974 -4.03753669 15.6670882 -2.4375 9.5 C-2.20353516 8.5821875 -1.96957031 7.664375 -1.72851562 6.71875 C-1.15666285 4.47802077 -0.58041707 2.23852312 0 0 Z M1 12 C2 16 2 16 2 16 Z " fill="#39547D" transform="translate(117,25)"/>
<path d="M0 0 C3.48354375 5.22531563 4.30934332 10.8131337 4 17 C2.02 16.67 0.04 16.34 -2 16 C-2.20413361 10.26157749 -2.27141454 5.39460953 0 0 Z " fill="#345586" transform="translate(196,142)"/>
<path d="M0 0 C0.33 0.99 0.66 1.98 1 3 C1.66 3 2.32 3 3 3 C3.67789024 5.35143176 4.34240747 7.70538624 5 10.0625 C5.19078125 10.71927734 5.3815625 11.37605469 5.578125 12.05273438 C6.79596429 16.4674018 7.19227394 20.37941677 7 25 C5.0390625 23.828125 5.0390625 23.828125 3 22 C2.4609375 19.546875 2.4609375 19.546875 2.375 16.75 C2.19111284 13.35481517 1.95908107 10.31042326 0.9375 7.0625 C0 4 0 4 0 0 Z " fill="#314B75" transform="translate(184,100)"/>
<path d="M0 0 C0.804375 0.4640625 0.804375 0.4640625 1.625 0.9375 C4.3984957 2.17827439 7.00042837 2.5909675 10 3 C9.34 5.31 8.68 7.62 8 10 C6.02 10 4.04 10 2 10 C2.66 9.34 3.32 8.68 4 8 C2.35 7.67 0.7 7.34 -1 7 C-0.67 4.69 -0.34 2.38 0 0 Z " fill="#284E80" transform="translate(309,190)"/>
<path d="M0 0 C0.99 0 1.98 0 3 0 C5.37467096 5.6992103 6.10271372 11.85429563 6 18 C5.37584456 19.35375486 4.71481145 20.69184603 4 22 C3.32810344 19.08444885 2.66230692 16.16773049 2 13.25 C1.80921875 12.425 1.6184375 11.6 1.421875 10.75 C1.24140625 9.95078125 1.0609375 9.1515625 0.875 8.328125 C0.70742188 7.5949707 0.53984375 6.86181641 0.3671875 6.10644531 C0 4 0 4 0 0 Z " fill="#39517A" transform="translate(36,144)"/>
<path d="M0 0 C1.875 0.25 1.875 0.25 4 1 C6.04687038 4.15802859 6.36017193 7.04240708 6.625 10.75 C6.69976563 11.73484375 6.77453125 12.7196875 6.8515625 13.734375 C6.92503906 14.85585938 6.92503906 14.85585938 7 16 C6.01 16.33 5.02 16.66 4 17 C3.33191847 14.35451646 2.66546951 11.7086406 2 9.0625 C1.80921875 8.30775391 1.6184375 7.55300781 1.421875 6.77539062 C0 1.11328125 0 1.11328125 0 0 Z " fill="#476086" transform="translate(8,27)"/>
<path d="M0 0 C0.99 0.495 0.99 0.495 2 1 C1.99476318 1.80630859 1.98952637 2.61261719 1.98413086 3.44335938 C1.96322638 7.12889819 1.95029714 10.81442448 1.9375 14.5 C1.92912109 15.7684375 1.92074219 17.036875 1.91210938 18.34375 C1.89565863 24.66083499 1.99908986 30.75810372 3 37 C1.51831055 35.9831543 1.51831055 35.9831543 0 34 C-0.26154123 31.34165372 -0.34939122 28.92314896 -0.29296875 26.26953125 C-0.28872391 25.51911057 -0.28447906 24.76868988 -0.28010559 23.99552917 C-0.2633245 21.60081974 -0.2256749 19.20695466 -0.1875 16.8125 C-0.17245235 15.1881632 -0.15876409 13.5638132 -0.14648438 11.93945312 C-0.11342305 7.95931052 -0.06164594 3.97979837 0 0 Z " fill="#203B67" transform="translate(295,160)"/>
<path d="M0 0 C0.66 0.66 1.32 1.32 2 2 C1.828125 4.3203125 1.828125 4.3203125 1.25 7.125 C1.05148438 8.10339844 0.85296875 9.08179687 0.6484375 10.08984375 C-0.16664348 13.74788789 -1.04284016 17.37646633 -2 21 C-4 18 -4 18 -3.7578125 15.6953125 C-3.54898438 14.84710938 -3.34015625 13.99890625 -3.125 13.125 C-2.4709629 10.41778312 -1.9966881 8.15944414 -2.0546875 5.3671875 C-2 3 -2 3 0 0 Z " fill="#3B5279" transform="translate(130,109)"/>
<path d="M0 0 C2.71567296 2.71567296 3.24031242 5.76406108 4.1875 9.375 C4.47270508 10.38433594 4.47270508 10.38433594 4.76367188 11.4140625 C5.69373485 14.90094068 6.37823351 17.57636262 5 21 C5 20.01 5 19.02 5 18 C4.34 18 3.68 18 3 18 C1.14256832 11.88595404 -0.42765417 6.41481258 0 0 Z " fill="#324971" transform="translate(167,171)"/>
<path d="M0 0 C0.66 0 1.32 0 2 0 C3.85743168 6.11404596 5.42765417 11.58518742 5 18 C2.59881473 15.59881473 2.24779139 13.94503958 1.375 10.6875 C1.11460937 9.74261719 0.85421875 8.79773437 0.5859375 7.82421875 C0.02520352 5.12148098 -0.1101876 2.74968152 0 0 Z " fill="#354C72" transform="translate(169,41)"/>
<path d="M0 0 C1.65 0.99 3.3 1.98 5 3 C4.67 5.64 4.34 8.28 4 11 C3.34 10.01 2.68 9.02 2 8 C1.67 8.66 1.34 9.32 1 10 C0.01 9.67 -0.98 9.34 -2 9 C-2.33 8.01 -2.66 7.02 -3 6 C-1.68 5.01 -0.36 4.02 1 3 C0.34 2.34 -0.32 1.68 -1 1 C-0.67 0.67 -0.34 0.34 0 0 Z " fill="#33588B" transform="translate(268,30)"/>
<path d="M0 0 C0.66 0 1.32 0 2 0 C1.36934845 5.7809725 0.34844868 11.3443706 -1 17 C-1.66 17 -2.32 17 -3 17 C-3.40214229 10.83381819 -1.96818336 5.82254243 0 0 Z " fill="#384F75" transform="translate(276,11)"/>
<path d="M0 0 C3 2 3 2 3.51171875 3.98828125 C3.56972656 4.75527344 3.62773437 5.52226562 3.6875 6.3125 C3.75195312 7.11171875 3.81640625 7.9109375 3.8828125 8.734375 C4.00835604 11.16155014 4.07837968 13.57023004 4 16 C1.10066891 10.40843291 -0.25166799 6.41753365 0 0 Z " fill="#304B75" transform="translate(7,15)"/>
<path d="M0 0 C2.76223278 2.76223278 2.57856291 5.20706617 3 9 C0.11562221 7.70700306 -1.87219421 6.34058637 -4 4 C-3 2 -3 2 0 0 Z " fill="#405A83" transform="translate(300,194)"/>
<path d="M0 0 C0.66 0 1.32 0 2 0 C2.53093324 1.93475671 3.04942317 3.87293155 3.5625 5.8125 C3.85253906 6.89144531 4.14257812 7.97039062 4.44140625 9.08203125 C5 12 5 12 4 15 C1.0554321 10.00703705 0.36504064 5.66442374 0 0 Z " fill="#3A5076" transform="translate(191,126)"/>
<path d="M0 0 C2.0625 0.4375 2.0625 0.4375 4 1 C3.38461538 6.53846154 3.38461538 6.53846154 1.4375 8.875 C0.963125 9.24625 0.48875 9.6175 0 10 C-1 9 -1 9 -1.1328125 7.1875 C-1.13023437 6.465625 -1.12765625 5.74375 -1.125 5 C-1.12757813 4.278125 -1.13015625 3.55625 -1.1328125 2.8125 C-1 1 -1 1 0 0 Z " fill="#3F577E" transform="translate(212,118)"/>
<path d="M0 0 C2.50025097 1.95671815 2.97465959 2.84478997 3.5 6.0625 C3.665 7.031875 3.83 8.00125 4 9 C4.99 9.66 5.98 10.32 7 11 C6.67 11.66 6.34 12.32 6 13 C4.125 12.875 4.125 12.875 2 12 C0.11301833 7.94298942 -0.21117043 4.43457902 0 0 Z " fill="#344B71" transform="translate(178,212)"/>
<path d="M0 0 C1.31534494 3.65857532 0.65468309 6.08026481 -0.4375 9.75 C-0.86869141 11.22726563 -0.86869141 11.22726563 -1.30859375 12.734375 C-1.53675781 13.48203125 -1.76492187 14.2296875 -2 15 C-2.66 15 -3.32 15 -4 15 C-3.88490339 13.58249437 -3.75746342 12.16598831 -3.625 10.75 C-3.55539063 9.96109375 -3.48578125 9.1721875 -3.4140625 8.359375 C-2.98158042 5.89504313 -2.21605654 4.1721926 -1 2 C-0.67 1.34 -0.34 0.68 0 0 Z " fill="#3A4F74" transform="translate(117,165)"/>
<path d="M0 0 C0.66 0 1.32 0 2 0 C2 2.31 2 4.62 2 7 C1.34 7 0.68 7 0 7 C-0.33 9.31 -0.66 11.62 -1 14 C-1.33 14 -1.66 14 -2 14 C-2.3690205 4.58997722 -2.3690205 4.58997722 0 0 Z " fill="#2C4873" transform="translate(225,62)"/>
<path d="M0 0 C0.99 0 1.98 0 3 0 C2.68806536 1.72926874 2.37542638 3.45841044 2.0625 5.1875 C1.88847656 6.15042969 1.71445313 7.11335937 1.53515625 8.10546875 C1.0476265 10.74239972 0.53328895 13.3719905 0 16 C-0.33 16 -0.66 16 -1 16 C-1.09688221 10.55306686 -1.12862175 5.36095333 0 0 Z " fill="#42587C" transform="translate(232,200)"/>
<path d="M0 0 C-0.33 1.32 -0.66 2.64 -1 4 C-1.66 3.67 -2.32 3.34 -3 3 C-5.33189345 2.73044167 -7.66321507 2.55492623 -10.00390625 2.37890625 C-10.66261719 2.25386719 -11.32132812 2.12882813 -12 2 C-12.33 1.34 -12.66 0.68 -13 0 C-12.05125 0.020625 -11.1025 0.04125 -10.125 0.0625 C-0.54508197 -0.12909836 -0.54508197 -0.12909836 0 0 Z " fill="#4C6081" transform="translate(325,191)"/>
<path d="M0 0 C0.33 0.99 0.66 1.98 1 3 C1.66 3 2.32 3 3 3 C3.33 6.3 3.66 9.6 4 13 C2.68 12.34 1.36 11.68 0 11 C0 7.37 0 3.74 0 0 Z " fill="#2F4974" transform="translate(196,146)"/>
<path d="M0 0 C0.33 0 0.66 0 1 0 C0.52013969 5.56890517 -0.29915181 10.67067568 -2 16 C-2.33 16 -2.66 16 -3 16 C-3.33266291 9.79029227 -2.45029331 5.71735105 0 0 Z " fill="#2D456D" transform="translate(208,142)"/>
<path d="M0 0 C1.89025742 3.2764462 2.68569741 6.2283689 3 10 C2.015625 12.1875 2.015625 12.1875 1 14 C-1.48063781 4.58997722 -1.48063781 4.58997722 0 0 Z " fill="#41577A" transform="translate(42,165)"/>
<path d="M0 0 C0.66 0 1.32 0 2 0 C2.07414355 3.85546463 2.09847762 7.29263803 1 11 C1 11.66 1 12.32 1 13 C0.34 13 -0.32 13 -1 13 C-1.0272415 11.58344207 -1.04650467 10.16672955 -1.0625 8.75 C-1.07410156 7.96109375 -1.08570312 7.1721875 -1.09765625 6.359375 C-1.00385306 4.09308998 -0.63241063 2.1711105 0 0 Z " fill="#2F4A75" transform="translate(87,144)"/>
<path d="M0 0 C0.33 0 0.66 0 1 0 C1.38897161 1.62171239 1.76078298 3.24754925 2.125 4.875 C2.33382812 5.77992187 2.54265625 6.68484375 2.7578125 7.6171875 C2.83773437 8.40351562 2.91765625 9.18984375 3 10 C2.34 10.66 1.68 11.32 1 12 C0.34 11.67 -0.32 11.34 -1 11 C-1.14285714 3.57142857 -1.14285714 3.57142857 0 0 Z " fill="#34507B" transform="translate(107,65)"/>
<path d="M0 0 C0.33 0 0.66 0 1 0 C1.20413361 5.73842251 1.27141454 10.60539047 -1 16 C-1.33 16 -1.66 16 -2 16 C-2.20674944 10.21101581 -1.59162079 5.57067277 0 0 Z " fill="#43587A" transform="translate(117,25)"/>
<path d="M0 0 C0.33 0 0.66 0 1 0 C1.02708567 1.60407328 1.04643483 3.2082785 1.0625 4.8125 C1.07410156 5.70582031 1.08570312 6.59914063 1.09765625 7.51953125 C1 10 1 10 0 13 C-0.66 13 -1.32 13 -2 13 C-2.33 13.99 -2.66 14.98 -3 16 C-2.30834212 10.58201328 -1.24200752 5.3177215 0 0 Z " fill="#4B5E81" transform="translate(121,9)"/>
<path d="M0 0 C0.66 0 1.32 0 2 0 C1.67 2.97 1.34 5.94 1 9 C0.34 9 -0.32 9 -1 9 C-1 10.32 -1 11.64 -1 13 C-1.66 12.67 -2.32 12.34 -3 12 C-2.01 8.04 -1.02 4.08 0 0 Z " fill="#4D6181" transform="translate(226,53)"/>
<path d="M0 0 C1.89025742 3.2764462 2.68569741 6.2283689 3 10 C2.015625 12.1875 2.015625 12.1875 1 14 C0.63659714 12.23103898 0.28459117 10.45973374 -0.0625 8.6875 C-0.25972656 7.70136719 -0.45695313 6.71523437 -0.66015625 5.69921875 C-1 3 -1 3 0 0 Z " fill="#3C537A" transform="translate(152,112)"/>
<path d="M0 0 C0.33 0 0.66 0 1 0 C1.33820166 1.5823006 1.67035939 3.16589375 2 4.75 C2.185625 5.63171875 2.37125 6.5134375 2.5625 7.421875 C3 10 3 10 3 14 C2.34 14 1.68 14 1 14 C-0.04976964 10.85069107 -0.10131595 8.61185544 -0.0625 5.3125 C-0.05347656 4.31863281 -0.04445312 3.32476562 -0.03515625 2.30078125 C-0.02355469 1.54152344 -0.01195312 0.78226562 0 0 Z " fill="#3E5378" transform="translate(48,7)"/>
<path d="M0 0 C2 3 2 3 2 6 C2.66 6 3.32 6 4 6 C3.67 7.65 3.34 9.3 3 11 C2.01 10.67 1.02 10.34 0 10 C0 6.7 0 3.4 0 0 Z " fill="#274A7D" transform="translate(19,60)"/>
<path d="M0 0 C0.99 0.33 1.98 0.66 3 1 C3 2.65 3 4.3 3 6 C2.01 6 1.02 6 0 6 C-0.33 6.66 -0.66 7.32 -1 8 C-1.04241723 5.66705225 -1.04092937 3.33297433 -1 1 C-0.67 0.67 -0.34 0.34 0 0 Z " fill="#2E4B76" transform="translate(123,5)"/>
<path d="M0 0 C8.57142857 -0.28571429 8.57142857 -0.28571429 12 2 C12 2.33 12 2.66 12 3 C10.18674449 2.88648483 8.37436643 2.75887039 6.5625 2.625 C5.04849609 2.52058594 5.04849609 2.52058594 3.50390625 2.4140625 C2.67761719 2.27742187 1.85132813 2.14078125 1 2 C0.67 1.34 0.34 0.68 0 0 Z " fill="#274879" transform="translate(302,201)"/>
<path d="M0 0 C0.33 0 0.66 0 1 0 C1.36923077 7.38461538 1.36923077 7.38461538 -0.5 10.5 C-0.995 10.995 -1.49 11.49 -2 12 C-2.21278058 7.53160785 -1.59138085 4.17737474 0 0 Z " fill="#2B436C" transform="translate(235,190)"/>
<path d="M0 0 C0.99 0 1.98 0 3 0 C2.67 1.65 2.34 3.3 2 5 C0.35 5.33 -1.3 5.66 -3 6 C-3.33 4.68 -3.66 3.36 -4 2 C-2.68 2.33 -1.36 2.66 0 3 C0 2.01 0 1.02 0 0 Z " fill="#3E5B88" transform="translate(204,155)"/>
<path d="M0 0 C0.33 0 0.66 0 1 0 C1.33 2.64 1.66 5.28 2 8 C-1.13349732 9.04449911 -1.98968256 8.93423645 -5 8 C-4.67 7.34 -4.34 6.68 -4 6 C-3.01 6.33 -2.02 6.66 -1 7 C-0.67 4.69 -0.34 2.38 0 0 Z " fill="#4D6286" transform="translate(85,151)"/>
<path d="M0 0 C2.58464442 4.38008443 1.81479148 7.11125113 1 12 C0.34 11.34 -0.32 10.68 -1 10 C-0.9765625 7.6171875 -0.9765625 7.6171875 -0.625 4.875 C-0.51414063 3.96492188 -0.40328125 3.05484375 -0.2890625 2.1171875 C-0.19367188 1.41851563 -0.09828125 0.71984375 0 0 Z " fill="#395179" transform="translate(232,25)"/>
<path d="M0 0 C0.33 0 0.66 0 1 0 C1.625 3.375 1.625 3.375 2 7 C1.34 7.66 0.68 8.32 0 9 C-0.66 8.34 -1.32 7.68 -2 7 C-1.43181818 1.43181818 -1.43181818 1.43181818 0 0 Z " fill="#284A7B" transform="translate(235,22)"/>
<path d="M0 0 C2.56616632 3.84924948 2.55097676 6.4349304 3 11 C1.5 10 1.5 10 0 8 C-0.27345479 5.28153765 -0.13491285 2.74322801 0 0 Z " fill="#30486F" transform="translate(295,186)"/>
<path d="M0 0 C0.33 0 0.66 0 1 0 C0.8864371 1.64666203 0.75882619 3.29236082 0.625 4.9375 C0.52058594 6.31228516 0.52058594 6.31228516 0.4140625 7.71484375 C0.27742187 8.46894531 0.14078125 9.22304687 0 10 C-0.99 10.495 -0.99 10.495 -2 11 C-2.28571429 3.57142857 -2.28571429 3.57142857 0 0 Z " fill="#2D466E" transform="translate(216,105)"/>
<path d="M0 0 C0.33 0 0.66 0 1 0 C1.49230769 7.26153846 1.49230769 7.26153846 -1 11 C-1.66 11.66 -2.32 12.32 -3 13 C-2.343621 8.51474352 -1.29925791 4.33085971 0 0 Z " fill="#294B7B" transform="translate(114,44)"/>
<path d="M0 0 C0.66 0 1.32 0 2 0 C2.33 2.64 2.66 5.28 3 8 C2.01 8.495 2.01 8.495 1 9 C0.67 6.03 0.34 3.06 0 0 Z " fill="#3C5379" transform="translate(169,41)"/>
<path d="M0 0 C1.88343932 3.76687864 2.22057835 5.02958963 2 9 C1.01 9 0.02 9 -1 9 C-0.67 6.03 -0.34 3.06 0 0 Z " fill="#41587E" transform="translate(53,31)"/>
<path d="M0 0 C1.65 1.65 3.3 3.3 5 5 C4.34 6.32 3.68 7.64 3 9 C1.76078698 6.02588876 0.69941596 3.14737182 0 0 Z " fill="#294C7F" transform="translate(41,162)"/>
<path d="M0 0 C-0.33 2.97 -0.66 5.94 -1 9 C-1.66 7.68 -2.32 6.36 -3 5 C-3.66 4.34 -4.32 3.68 -5 3 C-2.25 0 -2.25 0 0 0 Z " fill="#3B537B" transform="translate(271,41)"/>
<path d="M0 0 C0.66 0.33 1.32 0.66 2 1 C1.67 3.31 1.34 5.62 1 8 C0.34 8 -0.32 8 -1 8 C-1.125 2.25 -1.125 2.25 0 0 Z " fill="#3D5479" transform="translate(137,83)"/>
<path d="M0 0 C0.66 0 1.32 0 2 0 C2.33 2.64 2.66 5.28 3 8 C2.67 7.34 2.34 6.68 2 6 C1.01 5.67 0.02 5.34 -1 5 C-0.67 3.35 -0.34 1.7 0 0 Z " fill="#3D547A" transform="translate(174,60)"/>
<path d="M0 0 C0.33 0 0.66 0 1 0 C1.33 2.97 1.66 5.94 2 9 C1.01 8.67 0.02 8.34 -1 8 C-0.67 5.36 -0.34 2.72 0 0 Z " fill="#465A7E" transform="translate(57,49)"/>
</svg>
