<?xml version="1.0" encoding="UTF-8"?>
<svg version="1.1" xmlns="http://www.w3.org/2000/svg" width="417" height="184">
<path d="M0 0 C2.49137762 6.13241472 4.02688582 12.13330466 5.3125 18.6171875 C5.52274307 19.64749588 5.73298615 20.67780426 5.94960022 21.73933411 C6.40242208 23.95998941 6.85249451 26.18120681 7.30007935 28.40292358 C8.49651368 34.33804126 9.71475119 40.26866852 10.93359375 46.19921875 C11.18378769 47.4179921 11.43398163 48.63676544 11.6917572 49.89247131 C14.79963967 64.97116727 18.13241834 79.99978484 21.47070312 95.02880859 C21.69285995 96.02990158 21.91501678 97.03099457 22.14390564 98.06242371 C22.55379552 99.90767432 22.96478916 101.75268032 23.37721252 103.59736633 C23.56218796 104.42850449 23.74716339 105.25964264 23.93774414 106.1159668 C24.11588654 106.91360443 24.29402893 107.71124207 24.47756958 108.53305054 C24.84898301 110.28688824 25.19052937 112.04716687 25.51144409 113.8109436 C25.67709869 114.72000458 25.8427533 115.62906555 26.01342773 116.56567383 C26.15586411 117.39150467 26.29830048 118.21733551 26.4450531 119.06819153 C26.71975182 120.02443672 26.71975182 120.02443672 27 121 C27.99 121.495 27.99 121.495 29 122 C29.11532578 121.32299545 29.23065155 120.64599091 29.34947205 119.94847107 C30.47640061 113.52072837 31.8569163 107.22288834 33.50390625 100.91015625 C33.86289001 99.51401848 33.86289001 99.51401848 34.22912598 98.0896759 C34.73981057 96.10499138 35.25218685 94.12074148 35.7661438 92.13690186 C37.12283171 86.89929105 38.46652184 81.65833986 39.8125 76.41796875 C40.08280533 75.36712097 40.35311066 74.31627319 40.63160706 73.23358154 C42.9511705 64.21057547 45.2368714 55.17938431 47.49606323 46.14108276 C47.86751809 44.65504319 48.23950869 43.16913741 48.61209106 41.68338013 C50.61513166 33.69451292 52.56019348 25.69593499 54.38452148 17.6640625 C57.70396854 3.29603146 57.70396854 3.29603146 61 0 C63.14558827 -0.08775605 65.29404421 -0.10695219 67.44140625 -0.09765625 C68.74658203 -0.09443359 70.05175781 -0.09121094 71.39648438 -0.08789062 C72.7851569 -0.07953401 74.17382877 -0.07106905 75.5625 -0.0625 C76.95507656 -0.05748666 78.34765481 -0.05292347 79.74023438 -0.04882812 C83.1601987 -0.03699434 86.58007844 -0.0205088 90 0 C93.0914209 8.68586538 95.31144117 17.58776711 97.60546875 26.5078125 C98.05256944 28.23679515 98.49994764 29.96570605 98.94758606 31.69454956 C100.12599999 36.24883777 101.30064625 40.80408945 102.4744873 45.35955811 C103.64022737 49.88091716 104.80955895 54.40134674 105.97851562 58.921875 C106.43916591 60.70431809 106.89978816 62.48676842 107.36038208 64.26922607 C108.26958026 67.78767575 109.17959709 71.30591238 110.09005737 74.82403564 C112.01693778 82.27569001 113.93812968 89.72834863 115.81146145 97.19367409 C116.54880243 100.13110202 117.29149676 103.0671647 118.03447914 106.00317001 C118.37582515 107.35950246 118.71420456 108.71658532 119.04945946 110.07443619 C119.50410025 111.91582333 119.96914517 113.75463262 120.43481445 115.59326172 C120.69067825 116.62023163 120.94654205 117.64720154 121.2101593 118.70529175 C121.75952078 121.17150201 121.75952078 121.17150201 124 122 C124.32191232 120.18870666 124.64365132 118.37738238 124.96459961 116.56591797 C125.24075987 115.00752638 125.51762817 113.44926012 125.79516602 111.89111328 C126.56304724 107.55899454 127.27608314 103.22485864 127.9375 98.875 C128.63024209 94.6842496 129.60327175 90.66966402 130.75390625 86.58203125 C133.34610807 77.10434968 135.33587128 67.49942917 137.35449219 57.88647461 C137.99542625 54.83428069 138.64171386 51.78326108 139.2890625 48.73242188 C141.49326286 38.31676683 143.65383401 27.89435214 145.68395996 17.44319153 C148.64857269 2.35142731 148.64857269 2.35142731 151 0 C153.44830426 -0.08843793 155.86820599 -0.11528752 158.31640625 -0.09765625 C159.04746078 -0.0962413 159.77851532 -0.09482635 160.53172302 -0.09336853 C162.87535632 -0.08775408 165.21889539 -0.07519922 167.5625 -0.0625 C169.14778508 -0.05748686 170.73307166 -0.05292363 172.31835938 -0.04882812 C176.2122761 -0.03777997 180.10612205 -0.02050572 184 0 C183.45616137 5.81549909 182.59619325 11.42046274 181.25683594 17.10351562 C181.08224822 17.86293646 180.9076605 18.62235729 180.72778225 19.40479088 C180.15143606 21.90641116 179.56791655 24.40629928 178.984375 26.90625 C178.57215123 28.68943717 178.16040356 30.47273445 177.74909973 32.25613403 C176.87504236 36.04181857 175.99789638 39.82676816 175.11819458 43.61114502 C173.74312405 49.5265889 172.37465295 55.44354595 171.00756836 61.36083984 C169.63537667 67.29931168 168.26297639 73.23773365 166.88829041 79.17562866 C164.22582305 90.67795768 161.57750615 102.18334211 158.95703125 113.6953125 C158.73217733 114.68297482 158.73217733 114.68297482 158.50278091 115.6905899 C157.26400547 121.13322351 156.02740577 126.57635009 154.79211426 132.01977539 C153.42051964 138.0627104 152.04290468 144.10418122 150.65411377 150.14318848 C150.20300614 152.1133801 149.75542408 154.08438115 149.31072998 156.05603027 C148.64055088 159.02613012 147.9600126 161.99368723 147.27734375 164.9609375 C147.07693985 165.86083405 146.87653595 166.76073059 146.6700592 167.68789673 C146.17677542 169.80769193 145.59687363 171.90701111 145 174 C142.14736273 175.42631863 139.70940369 175.12980647 136.5234375 175.1328125 C135.21246094 175.13410156 133.90148437 175.13539063 132.55078125 175.13671875 C131.52138428 175.13357666 131.52138428 175.13357666 130.47119141 175.13037109 C128.40389477 175.12507404 126.33682064 175.13029092 124.26953125 175.13671875 C122.95082031 175.13542969 121.63210937 175.13414062 120.2734375 175.1328125 C119.07122559 175.13168457 117.86901367 175.13055664 116.63037109 175.12939453 C112.68860739 174.98890127 108.90502959 174.54157345 105 174 C100.67897202 159.9327172 96.73728154 145.79507054 93 131.5625 C89.80510892 119.4183779 86.54956758 107.30113284 83.07284546 95.23431396 C81.16755217 88.61621027 79.34964429 81.98018215 77.625 75.3125 C77.36589844 74.32701172 77.10679688 73.34152344 76.83984375 72.32617188 C75 65.25396825 75 65.25396825 75 63 C74.34 63 73.68 63 73 63 C72.78303467 64.0216626 72.56606934 65.0433252 72.3425293 66.09594727 C69.53004765 79.14101601 66.20514021 92.03310711 62.8125 104.9375 C61.94496981 108.25261785 61.07863504 111.56804673 60.21232605 114.88348389 C59.6350785 117.09228251 59.05745431 119.30098274 58.47944641 121.50958252 C55.89819597 131.37483912 53.34831748 141.24798074 50.8125 151.125 C50.44702698 152.54679503 50.08154866 153.9685887 49.71606445 155.39038086 C48.12395211 161.58864168 46.54094697 167.78879836 45 174 C37.94339616 175.09229986 31.00681714 175.14906687 23.875 175.125 C22.14443359 175.13080078 22.14443359 175.13080078 20.37890625 175.13671875 C18.70248047 175.13478516 18.70248047 175.13478516 16.9921875 175.1328125 C15.98526855 175.13168457 14.97834961 175.13055664 13.94091797 175.12939453 C10.89109695 174.99520848 7.99817168 174.56149505 5 174 C4.41305465 171.85515184 3.83074813 169.70903444 3.25 167.5625 C2.92515625 166.36753906 2.6003125 165.17257813 2.265625 163.94140625 C-1.00313657 151.43586441 -3.73400384 138.79529939 -6.43572998 126.15774536 C-7.2974363 122.13017761 -8.16619463 118.10413266 -9.03515625 114.078125 C-9.20486938 113.29176163 -9.37458252 112.50539825 -9.54943848 111.69520569 C-10.96496471 105.1450397 -12.40139518 98.59987422 -13.875 92.0625 C-14.06570068 91.20696533 -14.25640137 90.35143066 -14.45288086 89.4699707 C-15.19597011 86.20125261 -15.98460707 83.04612135 -17.046875 79.86328125 C-18.11984238 76.63998172 -18.75388425 73.46441057 -19.375 70.125 C-20.50816622 64.21561837 -21.87001297 58.40043614 -23.37182617 52.57177734 C-25.66737981 43.54412353 -27.55393508 34.42142112 -29.4909668 25.31152344 C-29.95676677 23.19632242 -30.46833867 21.09941521 -31 19 C-31.53140417 16.68990623 -32.05115971 14.37711762 -32.5625 12.0625 C-32.83191406 10.85722656 -33.10132813 9.65195313 -33.37890625 8.41015625 C-33.90985572 5.49494312 -34.12863772 2.94748167 -34 0 C-10.42197452 -1.51592357 -10.42197452 -1.51592357 0 0 Z " fill="#27538A" transform="translate(40,6)"/>
<path d="M0 0 C2.83398763 0.09606738 5.02345099 0.27250432 7.6875 1.125 C8.0175 2.445 8.3475 3.765 8.6875 5.125 C9.47125 4.485625 10.255 3.84625 11.0625 3.1875 C16.01202607 -0.70141334 20.54989287 -0.38128597 26.6875 0.125 C29.6875 1.4375 29.6875 1.4375 31.6875 3.125 C32.244375 3.558125 32.80125 3.99125 33.375 4.4375 C36.91718104 8.99173277 36.9654605 14.398238 36.8828125 19.9296875 C36.8799826 20.6536673 36.87715271 21.37764709 36.87423706 22.12356567 C36.86312087 24.4158849 36.83803312 26.70780063 36.8125 29 C36.8024591 30.56249432 36.79333519 32.12499482 36.78515625 33.6875 C36.76320973 37.50015338 36.72874013 41.31250848 36.6875 45.125 C34.89741533 45.34651549 33.10531838 45.55182213 31.3125 45.75 C30.31476563 45.86601562 29.31703125 45.98203125 28.2890625 46.1015625 C27.00128906 46.11316406 27.00128906 46.11316406 25.6875 46.125 C22.82743429 43.26493429 23.40236956 41.21902967 23.34375 37.21875 C23.3291272 36.53824585 23.31450439 35.8577417 23.29943848 35.15661621 C23.23710143 32.24148193 23.19754933 29.32613399 23.15576172 26.41064453 C23.12206497 24.28395232 23.07694384 22.1577127 23.03125 20.03125 C23.01255859 18.75572266 22.99386719 17.48019531 22.97460938 16.16601562 C23.0031715 13.01566337 23.0031715 13.01566337 20.6875 11.125 C15.33761764 11.04949269 15.33761764 11.04949269 11.09399414 13.7487793 C9.23501873 16.88945064 9.27165245 19.18601098 9.2109375 22.82421875 C9.18 24.11521484 9.1490625 25.40621094 9.1171875 26.73632812 C9.09819139 28.09504158 9.07997152 29.45376609 9.0625 30.8125 C9.01454273 33.48327839 8.9572786 36.15363532 8.8984375 38.82421875 C8.88087402 40.00846436 8.86331055 41.19270996 8.84521484 42.4128418 C8.6875 45.125 8.6875 45.125 7.6875 46.125 C6.04409133 46.22354655 4.3963539 46.25472411 2.75 46.25 C1.85410156 46.25257813 0.95820313 46.25515625 0.03515625 46.2578125 C-2.3125 46.125 -2.3125 46.125 -4.3125 45.125 C-4.33777124 38.87704325 -4.35533344 32.62909959 -4.36743164 26.38110352 C-4.37247298 24.25381986 -4.37930591 22.12653969 -4.38793945 19.99926758 C-4.40001379 16.94872174 -4.40573014 13.89822155 -4.41015625 10.84765625 C-4.41531754 9.89037125 -4.42047882 8.93308624 -4.42579651 7.9467926 C-4.42587204 7.06595505 -4.42594757 6.18511749 -4.42602539 5.27758789 C-4.428246 4.49815323 -4.43046661 3.71871857 -4.43275452 2.91566467 C-4.21395527 -0.34239236 -3.33916188 0.12600611 0 0 Z " fill="#284E81" transform="translate(376.3125,119.875)"/>
<path d="M0 0 C5.4721931 3.08800607 8.55623428 6.91870283 10.5625 12.9375 C11.67538093 29.33881075 11.67538093 29.33881075 7.97265625 35.32421875 C4.52864825 39.26431655 0.52763714 42.28245429 -4.4375 43.9375 C-6.70513574 44.08398082 -8.97782366 44.1584626 -11.25 44.1875 C-13.05404297 44.22617188 -13.05404297 44.22617188 -14.89453125 44.265625 C-21.29795247 43.67258489 -25.31542444 40.72802024 -29.4375 35.9375 C-33.8801319 29.43221757 -34.15193381 20.73448312 -32.875 13.125 C-31.18719468 6.95500969 -27.24265653 2.73546827 -21.8125 -0.5 C-14.69188736 -3.62545975 -7.00603219 -3.15323654 0 0 Z M-17.4375 9.9375 C-21.25105139 15.06606911 -21.12911457 20.80643027 -20.4375 26.9375 C-19.18915951 29.99593419 -18.23965319 31.30723678 -15.6875 33.3125 C-12.29637913 34.25447802 -9.82758797 33.78502199 -6.4375 32.9375 C-4.12591075 31.17339242 -2.83094327 29.85553429 -1.6875 27.1875 C-0.9412093 20.47088368 -1.12509934 15.85250117 -4.4375 9.9375 C-8.59295166 6.85442296 -13.09234286 7.48638571 -17.4375 9.9375 Z " fill="#2C5387" transform="translate(352.4375,122.0625)"/>
<path d="M0 0 C3.79664166 2.89743705 5.54654873 6.52073751 7 11 C7.30581744 13.75235696 7.47882369 16.19931341 7.4375 18.9375 C7.42992676 19.64044189 7.42235352 20.34338379 7.41455078 21.06762695 C7.20964433 27.5132063 5.9825153 31.83771665 1.57421875 36.51171875 C-4.58577559 42.06685576 -10.54072893 42.50012282 -18.54296875 42.3828125 C-24.68028659 41.7031999 -27.96623804 38.92382888 -32.3125 34.8125 C-36.31940594 28.13432343 -38.18200205 20.50615956 -36.53125 12.81640625 C-34.52982196 5.75184181 -31.12936844 0.94020843 -24.875 -2.9375 C-16.44756601 -5.92066247 -7.49558365 -4.60898654 0 0 Z M-22 9 C-24.1153632 12.29878317 -24.29783285 15.06048416 -24.3125 18.9375 C-24.32925781 19.95714844 -24.34601563 20.97679687 -24.36328125 22.02734375 C-23.94709088 25.43294454 -23.03492834 27.25975692 -21 30 C-17.22343644 32.51770904 -15.43085299 32.15397064 -11.09375 31.52734375 C-8.87338729 31.11823112 -8.87338729 31.11823112 -7 29.4375 C-4.51760523 23.38666275 -4.6386313 17.28324016 -6 11 C-8.20388692 7.69416961 -9.58984836 7.11185954 -13.4375 6.0625 C-17.44403151 5.99220997 -18.94354518 6.46750886 -22 9 Z " fill="#2C5285" transform="translate(305,124)"/>
<path d="M0 0 C0 2.97 0 5.94 0 9 C0.85464844 8.98839844 1.70929688 8.97679688 2.58984375 8.96484375 C3.69457031 8.95582031 4.79929688 8.94679688 5.9375 8.9375 C7.03964844 8.92589844 8.14179688 8.91429688 9.27734375 8.90234375 C12 9 12 9 13 10 C13.27314815 15.73611111 13.27314815 15.73611111 13 18 C11 20 11 20 8.3984375 20.1953125 C7.40070313 20.17210937 6.40296875 20.14890625 5.375 20.125 C3.87066406 20.09792969 3.87066406 20.09792969 2.3359375 20.0703125 C1.56507813 20.04710937 0.79421875 20.02390625 0 20 C0.13816959 23.64616671 0.28681534 27.29183074 0.4375 30.9375 C0.47681641 31.97841797 0.51613281 33.01933594 0.55664062 34.09179688 C0.59853516 35.08115234 0.64042969 36.07050781 0.68359375 37.08984375 C0.72025146 38.00628662 0.75690918 38.92272949 0.79467773 39.86694336 C0.77003864 41.9820728 0.77003864 41.9820728 2 43 C3.51928038 43.07179964 5.04167482 43.08392007 6.5625 43.0625 C7.38878906 43.05347656 8.21507812 43.04445312 9.06640625 43.03515625 C9.70449219 43.02355469 10.34257812 43.01195312 11 43 C14.17241379 49.34482759 14.17241379 49.34482759 13.375 52.375 C11.33879781 54.78142077 9.34733631 54.96942639 6.29296875 55.23828125 C1.48280674 55.3532411 -2.10947852 55.3905796 -6.5625 53.4375 C-12.78740377 47.21259623 -12.51437818 39.89707899 -12.6875 31.5625 C-12.72166016 30.44939453 -12.75582031 29.33628906 -12.79101562 28.18945312 C-12.87302429 25.45973617 -12.94232837 22.7303214 -13 20 C-14.65 19.67 -16.3 19.34 -18 19 C-18.19412181 17.52168779 -18.38012131 16.04230684 -18.5625 14.5625 C-18.66691406 13.73878906 -18.77132812 12.91507813 -18.87890625 12.06640625 C-18.91886719 11.38449219 -18.95882812 10.70257813 -19 10 C-18 9 -18 9 -14.9375 8.9375 C-13.4834375 8.9684375 -13.4834375 8.9684375 -12 9 C-12 6.36 -12 3.72 -12 1 C-10.56496445 0.63597631 -9.12683494 0.28413409 -7.6875 -0.0625 C-6.88699219 -0.25972656 -6.08648437 -0.45695312 -5.26171875 -0.66015625 C-3 -1 -3 -1 0 0 Z " fill="#2C5386" transform="translate(251,111)"/>
<path d="M0 0 C0.89589844 0.00322266 1.79179687 0.00644531 2.71484375 0.00976562 C4.12056641 0.02233398 4.12056641 0.02233398 5.5546875 0.03515625 C6.49957031 0.03966797 7.44445312 0.04417969 8.41796875 0.04882812 C10.75527137 0.06063268 13.09244811 0.07709866 15.4296875 0.09765625 C16.47418661 3.23115357 16.36392395 4.08733881 15.4296875 7.09765625 C10.66661313 8.05027112 6.2630347 8.18098982 1.4296875 8.09765625 C1.0996875 9.74765625 0.7696875 11.39765625 0.4296875 13.09765625 C4.7196875 13.09765625 9.0096875 13.09765625 13.4296875 13.09765625 C13.4296875 15.40765625 13.4296875 17.71765625 13.4296875 20.09765625 C9.4696875 20.09765625 5.5096875 20.09765625 1.4296875 20.09765625 C1.0996875 22.40765625 0.7696875 24.71765625 0.4296875 27.09765625 C2.03650391 27.08025391 2.03650391 27.08025391 3.67578125 27.0625 C5.07291493 27.05312326 6.47005049 27.04402294 7.8671875 27.03515625 C8.57423828 27.02677734 9.28128906 27.01839844 10.00976562 27.00976562 C11.81662309 27.00112037 13.62356353 27.04545614 15.4296875 27.09765625 C16.4296875 28.09765625 16.4296875 28.09765625 16.4921875 30.66015625 C16.4715625 31.46453125 16.4509375 32.26890625 16.4296875 33.09765625 C13.464702 33.95254909 10.8246533 34.23258368 7.7421875 34.22265625 C6.95457031 34.22523437 6.16695312 34.2278125 5.35546875 34.23046875 C1.36642238 34.04939054 -2.60158151 33.53862636 -6.5703125 33.09765625 C-6.5703125 22.53765625 -6.5703125 11.97765625 -6.5703125 1.09765625 C-4.16971433 -0.10264283 -2.67670601 -0.01694118 0 0 Z " fill="#354E75" transform="translate(238.5703125,68.90234375)"/>
<path d="M0 0 C0.99 0.33 1.98 0.66 3 1 C4.07281519 4.21844556 4.28161047 6.93136203 4.5 10.3125 C4.77858185 14.59569589 5.06476474 18.80374704 6 23 C7.91764174 24.3762794 7.91764174 24.3762794 10 25 C10.33 25.33 10.66 25.66 11 26 C15.11310464 26.4338366 18.79560836 26.63230561 22.5 24.6875 C24.23115403 22.96307007 24.23115403 22.96307007 25 20 C26.65 20 28.3 20 30 20 C29.4740625 20.86625 29.4740625 20.86625 28.9375 21.75 C27.85082593 24.35801776 28.06934867 25.39417629 29 28 C28.01 28.33 27.02 28.66 26 29 C25.67 29.66 25.34 30.32 25 31 C22.0819292 33.9180708 18.96053618 33.96185679 15 34 C5.76198934 32.88099467 5.76198934 32.88099467 2 31 C0.06669424 27.24079436 -0.19491883 24.19075475 0 20 C-0.66 20.33 -1.32 20.66 -2 21 C-4.31122041 18.59247874 -4.97838554 17.15747678 -5.4375 13.8125 C-4.905446 9.17602943 -3.43403605 3.43403605 0 0 Z " fill="#28538A" transform="translate(275,131)"/>
<path d="M0 0 C3 0.125 3 0.125 4 1.125 C4.08748207 3.05167507 4.10697334 4.98151861 4.09765625 6.91015625 C4.09443359 8.07998047 4.09121094 9.24980469 4.08789062 10.45507812 C4.07951172 11.68677734 4.07113281 12.91847656 4.0625 14.1875 C4.05798828 15.42306641 4.05347656 16.65863281 4.04882812 17.93164062 C4.03699618 20.99611413 4.01906008 24.06056293 4 27.125 C8.62 27.125 13.24 27.125 18 27.125 C18 29.105 18 31.085 18 33.125 C15.24295116 33.90170952 12.78736685 34.25309985 9.92578125 34.2578125 C9.17619141 34.25910156 8.42660156 34.26039062 7.65429688 34.26171875 C6.88150391 34.25785156 6.10871094 34.25398438 5.3125 34.25 C4.1359082 34.25580078 4.1359082 34.25580078 2.93554688 34.26171875 C-2.87332251 34.25167749 -2.87332251 34.25167749 -4 33.125 C-4.1007812 30.76101532 -4.13973215 28.42688689 -4.1328125 26.0625 C-4.13376923 25.35601318 -4.13472595 24.64952637 -4.13571167 23.92163086 C-4.13639333 22.42529207 -4.13454005 20.92895033 -4.13037109 19.43261719 C-4.12502257 17.13469843 -4.13031651 14.83697514 -4.13671875 12.5390625 C-4.13605797 11.08854123 -4.1347768 9.63802009 -4.1328125 8.1875 C-4.13483673 7.4958374 -4.13686096 6.8041748 -4.13894653 6.09155273 C-4.10966675 0.17123611 -4.10966675 0.17123611 0 0 Z " fill="#3F5880" transform="translate(263,68.875)"/>
<path d="M0 0 C3 0.125 3 0.125 4 1.125 C4.09949077 2.88185674 4.1308026 4.64267333 4.1328125 6.40234375 C4.13474609 8.00819336 4.13474609 8.00819336 4.13671875 9.64648438 C4.13285156 10.77376953 4.12898438 11.90105469 4.125 13.0625 C4.12886719 14.18591797 4.13273437 15.30933594 4.13671875 16.46679688 C4.13542969 17.53865234 4.13414062 18.61050781 4.1328125 19.71484375 C4.13168457 20.70347412 4.13055664 21.69210449 4.12939453 22.71069336 C4 25.125 4 25.125 3 27.125 C3.99902344 27.11339844 4.99804688 27.10179688 6.02734375 27.08984375 C7.31769531 27.08082031 8.60804688 27.07179688 9.9375 27.0625 C11.22527344 27.05089844 12.51304687 27.03929688 13.83984375 27.02734375 C17 27.125 17 27.125 18 28.125 C18.125 30.625 18.125 30.625 18 33.125 C16.41062444 34.71437556 14.76100154 34.25481143 12.5625 34.2578125 C11.22058594 34.25974609 11.22058594 34.25974609 9.8515625 34.26171875 C8.91054688 34.25785156 7.96953125 34.25398438 7 34.25 C5.58847656 34.25580078 5.58847656 34.25580078 4.1484375 34.26171875 C3.25382812 34.26042969 2.35921875 34.25914063 1.4375 34.2578125 C0.61121094 34.25668457 -0.21507812 34.25555664 -1.06640625 34.25439453 C-3 34.125 -3 34.125 -4 33.125 C-4.1007812 30.76101532 -4.13973215 28.42688689 -4.1328125 26.0625 C-4.13376923 25.35601318 -4.13472595 24.64952637 -4.13571167 23.92163086 C-4.13639333 22.42529207 -4.13454005 20.92895033 -4.13037109 19.43261719 C-4.12502257 17.13469843 -4.13031651 14.83697514 -4.13671875 12.5390625 C-4.13605797 11.08854123 -4.1347768 9.63802009 -4.1328125 8.1875 C-4.13483673 7.4958374 -4.13686096 6.8041748 -4.13894653 6.09155273 C-4.10966675 0.17123611 -4.10966675 0.17123611 0 0 Z " fill="#274D80" transform="translate(289,68.875)"/>
<path d="M0 0 C1.134375 0.020625 2.26875 0.04125 3.4375 0.0625 C3.4375 0.7225 3.4375 1.3825 3.4375 2.0625 C4.4275 2.3925 5.4175 2.7225 6.4375 3.0625 C6.4375 5.0425 6.4375 7.0225 6.4375 9.0625 C7.4275 9.3925 8.4175 9.7225 9.4375 10.0625 C9.4375 10.7225 9.4375 11.3825 9.4375 12.0625 C8.4475 12.0625 7.4575 12.0625 6.4375 12.0625 C6.31375 13.361875 6.19 14.66125 6.0625 16 C5.8515625 18.21484375 5.8515625 18.21484375 5.4375 20.0625 C4.7775 20.3925 4.1175 20.7225 3.4375 21.0625 C3.57870016 23.64616245 3.72528333 26.22932885 3.875 28.8125 C3.91431641 29.54210937 3.95363281 30.27171875 3.99414062 31.0234375 C4.19897098 34.4897973 4.5227002 37.71583026 5.4375 41.0625 C2.4375 43.0625 2.4375 43.0625 0.25 42.6875 C-0.348125 42.48125 -0.94625 42.275 -1.5625 42.0625 C-1.8925 40.7425 -2.2225 39.4225 -2.5625 38.0625 C-2.8925 40.3725 -3.2225 42.6825 -3.5625 45.0625 C-3.8925 45.0625 -4.2225 45.0625 -4.5625 45.0625 C-4.58777124 38.81454325 -4.60533344 32.56659959 -4.61743164 26.31860352 C-4.62247298 24.19131986 -4.62930591 22.06403969 -4.63793945 19.93676758 C-4.65001379 16.88622174 -4.65573014 13.83572155 -4.66015625 10.78515625 C-4.66531754 9.82787125 -4.67047882 8.87058624 -4.67579651 7.8842926 C-4.67587204 7.00345505 -4.67594757 6.12261749 -4.67602539 5.21508789 C-4.678246 4.43565323 -4.68046661 3.65621857 -4.68275452 2.85316467 C-4.45604667 -0.5226564 -3.48258192 0.06109793 0 0 Z " fill="#30578C" transform="translate(376.5625,119.9375)"/>
<path d="M0 0 C0.33 0 0.66 0 1 0 C1.14803706 5.45491282 0.72801683 10.3427538 -0.52880859 15.66601562 C-0.69140671 16.38585129 -0.85400482 17.10568695 -1.02153015 17.84733582 C-1.55562318 20.20226546 -2.10187978 22.55418504 -2.6484375 24.90625 C-3.0255219 26.55700268 -3.40186249 28.20792543 -3.77749634 29.85900879 C-4.76529698 34.19118377 -5.76357421 38.52087916 -6.76397705 42.85015869 C-7.77645851 47.24101701 -8.77819056 51.63432551 -9.78125 56.02734375 C-11.25312167 62.46408376 -12.72779345 68.90016908 -14.21240234 75.33398438 C-14.36417435 75.9939592 -14.51594635 76.65393402 -14.6723175 77.33390808 C-15.72890734 81.9033407 -16.8527697 86.45270024 -18 91 C-18.66 91 -19.32 91 -20 91 C-19.35443402 83.54450015 -17.8558338 76.46122351 -16.125 69.1875 C-15.74021484 67.53911133 -15.74021484 67.53911133 -15.34765625 65.85742188 C-13.25001045 56.91343965 -13.25001045 56.91343965 -12.14013672 52.85839844 C-10.37775006 46.3640816 -9.62501176 40.59207542 -9.875 33.875 C-10.10245601 25.20491202 -10.10245601 25.20491202 -9 23 C-7.68 23.33 -6.36 23.66 -5 24 C-4.82609741 23.06933716 -4.82609741 23.06933716 -4.64868164 22.11987305 C-4.12212393 19.30867062 -3.59234914 16.49808384 -3.0625 13.6875 C-2.88009766 12.71103516 -2.69769531 11.73457031 -2.50976562 10.72851562 C-2.33251953 9.79072266 -2.15527344 8.85292969 -1.97265625 7.88671875 C-1.81031494 7.02264404 -1.64797363 6.15856934 -1.48071289 5.26831055 C-1 3 -1 3 0 0 Z " fill="#344B70" transform="translate(220,15)"/>
<path d="M0 0 C-0.33 1.32 -0.66 2.64 -1 4 C-1 3.34 -1 2.68 -1 2 C-1.99 2.165 -2.98 2.33 -4 2.5 C-9.0810361 3.15679461 -14.16394396 3.05373954 -19.27539062 2.96289062 C-22.9945363 2.91608627 -26.38516262 3.10155498 -30 4 C-29.29416478 12.53651444 -29.29416478 12.53651444 -28 21 C-27.34 21 -26.68 21 -26 21 C-25.88914062 22.25425781 -25.77828125 23.50851563 -25.6640625 24.80078125 C-24.93646142 31.36847367 -23.25777147 37.69632664 -21.640625 44.09179688 C-20.4460985 49.05869299 -19.58902734 52.94259801 -21 58 C-23.02438689 54.46740895 -23.81722895 50.92917318 -24.69140625 46.96875 C-24.841577 46.29581909 -24.99174774 45.62288818 -25.14646912 44.92956543 C-25.62342365 42.78743858 -26.09313699 40.64380168 -26.5625 38.5 C-27.03707502 36.35658708 -27.51310402 34.21350064 -27.98924255 32.07043457 C-28.42034303 30.12624167 -28.84807566 28.1813029 -29.27563477 26.23632812 C-29.81805228 23.81290831 -30.38712014 21.40593607 -31 19 C-31.53140417 16.68990623 -32.05115971 14.37711762 -32.5625 12.0625 C-32.83191406 10.85722656 -33.10132813 9.65195313 -33.37890625 8.41015625 C-33.90985572 5.49494312 -34.12863772 2.94748167 -34 0 C-10.42197452 -1.51592357 -10.42197452 -1.51592357 0 0 Z " fill="#395278" transform="translate(40,6)"/>
<path d="M0 0 C4.39245682 4.39245682 3.12988915 12.62065039 3.13671875 18.453125 C3.13285156 19.58234375 3.12898438 20.7115625 3.125 21.875 C3.12886719 23.02742188 3.13273437 24.17984375 3.13671875 25.3671875 C3.13542969 26.4603125 3.13414062 27.5534375 3.1328125 28.6796875 C3.13168457 29.67726074 3.13055664 30.67483398 3.12939453 31.70263672 C3 34 3 34 2 35 C-0.31 35 -2.62 35 -5 35 C-5 28.07 -5 21.14 -5 14 C-3.68 13.67 -2.36 13.34 -1 13 C-1.309375 11.1746875 -1.309375 11.1746875 -1.625 9.3125 C-2.09963844 5.65193227 -1.76581384 3.32388488 0 0 Z " fill="#295389" transform="translate(408,127)"/>
<path d="M0 0 C5.94 0 11.88 0 18 0 C18 0.33 18 0.66 18 1 C12.72 1 7.44 1 2 1 C2 10.57 2 20.14 2 30 C2.33 29.34 2.66 28.68 3 28 C3.99 28 4.98 28 6 28 C6 26.02 6 24.04 6 22 C6.33 23.32 6.66 24.64 7 26 C8.60681641 25.98259766 8.60681641 25.98259766 10.24609375 25.96484375 C11.64322743 25.95546701 13.04036299 25.94636669 14.4375 25.9375 C15.14455078 25.92912109 15.85160156 25.92074219 16.58007812 25.91210938 C18.38693559 25.90346412 20.19387603 25.94779989 22 26 C23 27 23 27 23.0625 29.5625 C23.041875 30.366875 23.02125 31.17125 23 32 C20.0350145 32.85489284 17.3949658 33.13492743 14.3125 33.125 C13.52488281 33.12757812 12.73726562 33.13015625 11.92578125 33.1328125 C7.93673488 32.95173429 3.96873099 32.44097011 0 32 C0 21.44 0 10.88 0 0 Z " fill="#2F4569" transform="translate(232,70)"/>
<path d="M0 0 C0.66 0 1.32 0 2 0 C2.33 2.31 2.66 4.62 3 7 C2.34 7 1.68 7 1 7 C1.185625 7.5775 1.37125 8.155 1.5625 8.75 C2.33300647 12.7126047 0.85595105 15.53555803 -1 19 C-1.33 18.67 -1.66 18.34 -2 18 C-2.48164188 20.35368393 -2.96036648 22.70790155 -3.4375 25.0625 C-3.57220703 25.71927734 -3.70691406 26.37605469 -3.84570312 27.05273438 C-4.71470632 31.35535995 -5.4172492 35.64917124 -6 40 C-6.66 40 -7.32 40 -8 40 C-8 40.66 -8 41.32 -8 42 C-7.34 42 -6.68 42 -6 42 C-6 42.66 -6 43.32 -6 44 C-6.99 44.495 -6.99 44.495 -8 45 C-8.36548445 46.32488113 -8.6937566 47.66018514 -9 49 C-9.3196875 49.61359375 -9.639375 50.2271875 -9.96875 50.859375 C-11.03673195 53.07624662 -11.5323123 55.02807317 -12 57.4375 C-12.69944391 60.80149214 -13.57947037 63.85454153 -15 67 C-16.65 66.67 -18.3 66.34 -20 66 C-21.42258812 62.17679443 -22.24042276 59.08718695 -22 55 C-20 58 -20 58 -19 61.125 C-18.3313327 64.12511062 -18.3313327 64.12511062 -16 65 C-15.8875293 64.33482361 -15.77505859 63.66964722 -15.65917969 62.98431396 C-14.47411778 56.19944862 -12.97650962 49.55638333 -11.25 42.890625 C-10.9912207 41.87957703 -10.73244141 40.86852905 -10.46582031 39.82684326 C-9.64745036 36.63363329 -8.82370028 33.44183859 -8 30.25 C-7.44758727 28.0951365 -6.8955012 25.94018923 -6.34375 23.78515625 C-5.81279817 21.7160693 -5.28155816 19.64705627 -4.75 17.578125 C-4.50411133 16.62069397 -4.25822266 15.66326294 -4.00488281 14.67681885 C-2.73631001 9.7633958 -1.42108322 4.87156712 0 0 Z " fill="#334C72" transform="translate(85,63)"/>
<path d="M0 0 C0.99 0 1.98 0 3 0 C2.34 5.61 1.68 11.22 1 17 C0.01 17.33 -0.98 17.66 -2 18 C-1.938125 19.485 -1.938125 19.485 -1.875 21 C-1.86808752 24.44933 -2.56584954 27.47086818 -3.48828125 30.80078125 C-4.42087271 34.8087888 -4.6810897 38.90452035 -5 43 C-5.66 43 -6.32 43 -7 43 C-7.33 47.29 -7.66 51.58 -8 56 C-8.66 56 -9.32 56 -10 56 C-10 56.66 -10 57.32 -10 58 C-9.34 58.33 -8.68 58.66 -8 59 C-8.66 59 -9.32 59 -10 59 C-11.98 68.405 -11.98 68.405 -14 78 C-14.66 78 -15.32 78 -16 78 C-15.06526448 68.65264477 -13.76674829 59.53170871 -11.22265625 50.47265625 C-8.47607405 40.43145232 -6.39583012 30.24520236 -4.25 20.0625 C-3.83499024 18.10734652 -3.41962793 16.15226785 -3.00390625 14.19726562 C-1.99854748 9.46569417 -0.99793076 4.73314341 0 0 Z " fill="#304C75" transform="translate(182,42)"/>
<path d="M0 0 C0.66 0 1.32 0 2 0 C3.4606285 2.64738916 4 3.89448334 4 7 C4.66 7 5.32 7 6 7 C6.19335938 8.19238281 6.38671875 9.38476562 6.5859375 10.61328125 C6.84857916 12.17975112 7.11162088 13.74615395 7.375 15.3125 C7.50132813 16.09818359 7.62765625 16.88386719 7.7578125 17.69335938 C7.88671875 18.45068359 8.015625 19.20800781 8.1484375 19.98828125 C8.32125244 21.03302612 8.32125244 21.03302612 8.49755859 22.09887695 C8.97175121 24.30828759 8.97175121 24.30828759 11 27 C11.4140625 30.13671875 11.4140625 30.13671875 11.625 33.6875 C11.69976562 34.86699219 11.77453125 36.04648438 11.8515625 37.26171875 C11.90054687 38.16535156 11.94953125 39.06898437 12 40 C12.66 40 13.32 40 14 40 C14.16604736 41.01984985 14.16604736 41.01984985 14.33544922 42.06030273 C14.84598548 45.18647402 15.36046675 48.31198419 15.875 51.4375 C16.13603516 53.04141602 16.13603516 53.04141602 16.40234375 54.67773438 C17.74210627 65.12397601 17.74210627 65.12397601 21 75 C19.08950806 74.28936768 19.08950806 74.28936768 17 73 C16.11483765 70.93963623 16.11483765 70.93963623 15.56787109 68.37011719 C15.35440033 67.40861755 15.14092957 66.44711792 14.92098999 65.45648193 C14.70729767 64.41381165 14.49360535 63.37114136 14.2734375 62.296875 C14.03968414 61.22632874 13.80593079 60.15578247 13.56509399 59.05279541 C12.81909379 55.62175025 12.09635929 52.18630207 11.375 48.75 C10.6418541 45.32913353 9.90398208 41.90933304 9.16348267 38.49005127 C8.70404064 36.36094333 8.24970506 34.23072539 7.80111694 32.0993042 C6.77633377 27.28071604 5.6477273 22.65174714 4 18 C3.30013428 14.77525984 2.67097328 11.54452053 2.05664062 8.30273438 C1.50882601 5.45467199 0.91870461 2.75611382 0 0 Z " fill="#324A71" transform="translate(18,65)"/>
<path d="M0 0 C2.41137963 2.13920016 3.46120046 3.71009722 4.25854492 6.82543945 C4.45852585 7.58665604 4.65850677 8.34787262 4.86454773 9.13215637 C5.06780167 9.95092758 5.2710556 10.76969879 5.48046875 11.61328125 C5.69818436 12.46045212 5.91589996 13.30762299 6.14021301 14.1804657 C6.59810223 15.97214026 7.05083531 17.76513932 7.4987793 19.55932617 C8.18314227 22.2950799 8.88612424 25.02553436 9.59179688 27.75585938 C10.03497526 29.49971547 10.47706823 31.24384785 10.91796875 32.98828125 C11.12729538 33.80097977 11.33662201 34.61367828 11.55229187 35.45100403 C12.61124783 39.73449028 13.23771623 43.54850724 13 48 C12.319375 47.071875 12.319375 47.071875 11.625 46.125 C10.02891081 43.94080167 10.02891081 43.94080167 8 42 C6.68 42 5.36 42 4 42 C3.67 40.68 3.34 39.36 3 38 C5.475 37.505 5.475 37.505 8 37 C8 36.01 8 35.02 8 34 C7.34 34 6.68 34 6 34 C4.8336546 29.10814355 3.90480039 24.32447987 3.34765625 19.3203125 C2.03944564 10.40053387 2.03944564 10.40053387 -1 2 C-0.67 1.34 -0.34 0.68 0 0 Z " fill="#285185" transform="translate(142,58)"/>
<path d="M0 0 C1.98 0 3.96 0 6 0 C6 8.25 6 16.5 6 25 C5.01 25 4.02 25 3 25 C2.67 24.01 2.34 23.02 2 22 C1.67 24.64 1.34 27.28 1 30 C0.67 30 0.34 30 0 30 C0 20.1 0 10.2 0 0 Z " fill="#214474" transform="translate(260,71)"/>
<path d="M0 0 C0.99 0.495 0.99 0.495 2 1 C2.65138245 2.99153137 2.65138245 2.99153137 3.22094727 5.63989258 C3.43779678 6.62794388 3.6546463 7.61599518 3.87806702 8.63398743 C4.10521896 9.70996689 4.33237091 10.78594635 4.56640625 11.89453125 C4.80536118 12.99343185 5.0443161 14.09233246 5.29051208 15.22453308 C6.05580371 18.75218824 6.80935417 22.2822338 7.5625 25.8125 C8.07408142 28.18311298 8.58644125 30.55355812 9.09960938 32.92382812 C9.82283721 36.26502143 10.54485678 39.60642778 11.26087952 42.94917297 C11.47457687 43.94668076 11.68827423 44.94418854 11.90844727 45.97192383 C12.09560806 46.84826981 12.28276886 47.72461578 12.4756012 48.6275177 C12.81138812 50.14668311 13.17143071 51.6608126 13.56211853 53.16679382 C14.09698867 55.40604649 14.0963065 57.45115829 14.0625 59.75 C14.05347656 60.54921875 14.04445313 61.3484375 14.03515625 62.171875 C14.02355469 62.77515625 14.01195312 63.3784375 14 64 C12.2269692 61.3404538 11.62740537 60.07120491 10.96484375 57.09375 C10.79533203 56.34996094 10.62582031 55.60617188 10.45117188 54.83984375 C10.1969043 53.68162109 10.1969043 53.68162109 9.9375 52.5 C9.5936129 50.96848795 9.24860461 49.43722711 8.90234375 47.90625 C8.75273193 47.22884766 8.60312012 46.55144531 8.44897461 45.85351562 C7.72803196 42.87722601 7.19775899 41.19775899 5 39 C5.66 37.35 6.32 35.7 7 34 C6.34 34 5.68 34 5 34 C4.91959473 33.43603516 4.83918945 32.87207031 4.75634766 32.29101562 C4.38350875 29.6933762 4.00429391 27.09670443 3.625 24.5 C3.49867187 23.613125 3.37234375 22.72625 3.2421875 21.8125 C2.63320193 17.67139811 1.95884279 13.6159629 0.90625 9.5625 C0.05147625 6.20235492 -0.17228495 3.44569899 0 0 Z " fill="#324A6F" transform="translate(47,43)"/>
<path d="M0 0 C3.25035427 0.35744365 5.16537877 1.18470435 7.6640625 3.29296875 C8.2209375 3.72609375 8.7778125 4.15921875 9.3515625 4.60546875 C12.89374354 9.15970152 12.942023 14.56620675 12.859375 20.09765625 C12.8565451 20.82163605 12.85371521 21.54561584 12.85079956 22.29153442 C12.83968337 24.58385365 12.81459562 26.87576938 12.7890625 29.16796875 C12.7790216 30.73046307 12.76989769 32.29296357 12.76171875 33.85546875 C12.73977223 37.66812213 12.70530263 41.48047723 12.6640625 45.29296875 C10.3540625 45.29296875 8.0440625 45.29296875 5.6640625 45.29296875 C5.6640625 44.96296875 5.6640625 44.63296875 5.6640625 44.29296875 C7.3140625 44.29296875 8.9640625 44.29296875 10.6640625 44.29296875 C10.55323178 39.81333535 10.42283062 35.33447126 10.2890625 30.85546875 C10.258125 29.59541016 10.2271875 28.33535156 10.1953125 27.03710938 C9.98164526 20.21756325 9.67515265 13.8375333 7.6640625 7.29296875 C2.49706356 2.96956147 -1.80273052 2.83716361 -8.3359375 3.29296875 C-9.3259375 3.29296875 -10.3159375 3.29296875 -11.3359375 3.29296875 C-8.1482765 -0.75044017 -4.8197232 -0.13352795 0 0 Z " fill="#2E456C" transform="translate(400.3359375,119.70703125)"/>
<path d="M0 0 C0.33 0 0.66 0 1 0 C1.03738281 0.95261719 1.07476562 1.90523437 1.11328125 2.88671875 C1.17902344 4.14097656 1.24476563 5.39523438 1.3125 6.6875 C1.39951172 8.54955078 1.39951172 8.54955078 1.48828125 10.44921875 C2.02253687 14.15638182 2.60113724 16.13819881 5 19 C7.47061919 20.02273864 7.47061919 20.02273864 10.1875 20.3125 C11.08855469 20.45300781 11.98960937 20.59351563 12.91796875 20.73828125 C13.60503906 20.82464844 14.29210937 20.91101563 15 21 C14.67 21.99 14.34 22.98 14 24 C7.76576703 24.44530236 4.08971978 22.39314652 -1 19 C-1.66 19.99 -2.32 20.98 -3 22 C-2.67 22.66 -2.34 23.32 -2 24 C-3.875 24.625 -3.875 24.625 -6 25 C-6.66 24.34 -7.32 23.68 -8 23 C-7.8125 20 -7.8125 20 -7 17 C-6.01 16.34 -5.02 15.68 -4 15 C-3.32915888 11.55420959 -3.32915888 11.55420959 -3 8 C-2.09456151 5.28368454 -1.07525194 2.65228812 0 0 Z " fill="#2E4A73" transform="translate(331,135)"/>
<path d="M0 0 C1.39120471 0.00015906 2.78241534 0.00585033 4.17358398 0.01586914 C4.90463852 0.01728409 5.63569305 0.01869904 6.38890076 0.02015686 C8.73253406 0.02577131 11.07607313 0.03832617 13.41967773 0.05102539 C15.00496282 0.05603853 16.59024939 0.06060176 18.17553711 0.06469727 C22.06945383 0.07574542 25.96329979 0.09301967 29.85717773 0.11352539 C29.52717773 1.76352539 29.19717773 3.41352539 28.85717773 5.11352539 C28.19717773 4.12352539 27.53717773 3.13352539 26.85717773 2.11352539 C23.94653394 1.6956345 23.94653394 1.6956345 20.53686523 1.82055664 C19.2800293 1.83022461 18.02319336 1.83989258 16.72827148 1.84985352 C14.75020508 1.88755859 14.75020508 1.88755859 12.73217773 1.92602539 C11.3923487 1.94107056 10.0525037 1.95475926 8.71264648 1.96704102 C5.42708931 2.00249667 2.14233192 2.0519169 -1.14282227 2.11352539 C-1.65067196 3.84301055 -2.14876857 5.57536128 -2.64282227 7.30883789 C-2.92125977 8.27321777 -3.19969727 9.23759766 -3.48657227 10.23120117 C-4.10614946 12.9524543 -4.26746616 15.21359086 -4.14282227 17.98852539 C-3.98155234 21.93613266 -4.90765817 23.80548253 -7.14282227 27.11352539 C-7.30782227 28.16540039 -7.47282227 29.21727539 -7.64282227 30.30102539 C-7.80782227 31.22915039 -7.97282227 32.15727539 -8.14282227 33.11352539 C-9.13282227 33.77352539 -10.12282227 34.43352539 -11.14282227 35.11352539 C-11.35847571 30.30965892 -10.56941032 26.09507651 -9.33032227 21.48852539 C-8.96294501 20.07841856 -8.59575954 18.66826176 -8.22875977 17.25805664 C-7.95370605 16.21512451 -7.95370605 16.21512451 -7.6730957 15.15112305 C-6.64631194 11.20566389 -5.71094097 7.23705724 -4.75610352 3.27368164 C-3.79983814 -0.0945652 -3.6825878 0.13302286 0 0 Z " fill="#344F78" transform="translate(194.142822265625,5.886474609375)"/>
<path d="M0 0 C0.66 0 1.32 0 2 0 C5.18421053 16.02631579 5.18421053 16.02631579 1 23 C0.67 22.34 0.34 21.68 0 21 C-0.99 23.475 -0.99 23.475 -2 26 C-2.66 25.34 -3.32 24.68 -4 24 C-3 21 -3 21 -2 19 C-2.33 18.34 -2.66 17.68 -3 17 C-3.09685088 14.83509805 -3.12979438 12.66706197 -3.125 10.5 C-3.12757813 9.3346875 -3.13015625 8.169375 -3.1328125 6.96875 C-3 4 -3 4 -2 2 C-1.34 2 -0.68 2 0 2 C0 1.34 0 0.68 0 0 Z " fill="#2B568E" transform="translate(325,131)"/>
<path d="M0 0 C3 2 3 2 3.6875 5.125 C3.8421875 6.548125 3.8421875 6.548125 4 8 C5.98 8.66 7.96 9.32 10 10 C9.855625 10.78375 9.71125 11.5675 9.5625 12.375 C8.65296116 18.23647252 8 24.06568361 8 30 C9.98 30.33 11.96 30.66 14 31 C14 31.33 14 31.66 14 32 C11.69 32 9.38 32 7 32 C0 6.62944162 0 6.62944162 0 0 Z " fill="#2E4D79" transform="translate(38,148)"/>
<path d="M0 0 C0.66 0 1.32 0 2 0 C0.8759248 9.01198218 -1.40516153 17.63476724 -3.74316406 26.39306641 C-5.73657258 33.88862655 -7.49627566 41.38904437 -9 49 C-10.98 49.495 -10.98 49.495 -13 50 C-12.80365967 49.21987549 -12.60731934 48.43975098 -12.4050293 47.63598633 C-11.49788856 44.02848246 -10.59268598 40.42049482 -9.6875 36.8125 C-9.37876953 35.58595703 -9.07003906 34.35941406 -8.75195312 33.09570312 C-6.97097758 25.99054806 -5.25529176 18.87585626 -3.63647461 11.73193359 C-1.69126506 3.38253012 -1.69126506 3.38253012 0 0 Z " fill="#354D72" transform="translate(98,12)"/>
<path d="M0 0 C0.66 0.33 1.32 0.66 2 1 C2 10.24 2 19.48 2 29 C5.96 28.505 5.96 28.505 10 28 C10 28.99 10 29.98 10 31 C8.35 31 6.7 31 5 31 C5 31.66 5 32.32 5 33 C0.125 32.125 0.125 32.125 -1 31 C-1.09962739 29.30182292 -1.1308048 27.59953332 -1.1328125 25.8984375 C-1.13410156 24.85042969 -1.13539063 23.80242187 -1.13671875 22.72265625 C-1.13285156 21.61792969 -1.12898438 20.51320312 -1.125 19.375 C-1.12886719 18.29347656 -1.13273437 17.21195313 -1.13671875 16.09765625 C-1.13003755 10.62575082 -0.9727109 5.38850959 0 0 Z " fill="#3A517A" transform="translate(401,133)"/>
<path d="M0 0 C-0.969375 0.45375 -1.93875 0.9075 -2.9375 1.375 C-6.07079582 2.65786221 -6.07079582 2.65786221 -7 5 C-7.66 5 -8.32 5 -9 5 C-10.64784391 9.42815667 -11.43414954 13.48082033 -11.8125 18.1875 C-11.92207031 19.39792969 -12.03164063 20.60835937 -12.14453125 21.85546875 C-12.30219019 24.99009079 -12.30219019 24.99009079 -10.51171875 26.92578125 C-10.01285156 27.28027344 -9.51398438 27.63476562 -9 28 C-8.34 27.67 -7.68 27.34 -7 27 C-7.04125 28.051875 -7.0825 29.10375 -7.125 30.1875 C-7.00852125 33.74010173 -6.52791932 35.84866641 -5 39 C-9.25380138 37.48078522 -10.85060569 34.86890976 -13 31 C-15.67539622 23.59005428 -15.7151764 16.64192833 -13.05859375 9.21875 C-10.36715928 3.57766225 -6.59249507 -1.97774852 0 0 Z " fill="#335078" transform="translate(283,123)"/>
<path d="M0 0 C0.99 0.66 1.98 1.32 3 2 C2.67 4.31 2.34 6.62 2 9 C2.99902344 8.98839844 3.99804688 8.97679688 5.02734375 8.96484375 C6.31769531 8.95582031 7.60804688 8.94679688 8.9375 8.9375 C10.22527344 8.92589844 11.51304687 8.91429688 12.83984375 8.90234375 C16 9 16 9 17 10 C17.125 12.5 17.125 12.5 17 15 C16 16 16 16 13.1875 16.3125 C10 16 10 16 7.625 14 C7.08875 13.34 6.5525 12.68 6 12 C6.33 11.67 6.66 11.34 7 11 C5.35 10.67 3.7 10.34 2 10 C2 10.66 2 11.32 2 12 C2.66 12.33 3.32 12.66 4 13 C1.69 13 -0.62 13 -3 13 C-3 10.36 -3 7.72 -3 5 C-2.34 5 -1.68 5 -1 5 C-0.67 3.35 -0.34 1.7 0 0 Z " fill="#3A5782" transform="translate(290,87)"/>
<path d="M0 0 C8.57142857 -0.14285714 8.57142857 -0.14285714 12 1 C12 2.98 12 4.96 12 7 C9 8 9 8 5.875 7.5 C1.38692814 6.92089395 -2.55148823 7.34432366 -7 8 C-7 7.01 -7 6.02 -7 5 C-5.5459375 4.5978125 -5.5459375 4.5978125 -4.0625 4.1875 C-3.051875 3.795625 -2.04125 3.40375 -1 3 C-0.67 2.01 -0.34 1.02 0 0 Z " fill="#29538C" transform="translate(287,122)"/>
<path d="M0 0 C0.33 0 0.66 0 1 0 C1.18928891 5.37492464 0.53438937 10.07813475 -0.6796875 15.3046875 C-0.85251251 16.06927277 -1.02533752 16.83385803 -1.20339966 17.62161255 C-1.56787375 19.22418769 -1.93616589 20.82589886 -2.30810547 22.42675781 C-2.87756998 24.88609895 -3.42968724 27.34891552 -3.98046875 29.8125 C-4.33751101 31.37263206 -4.69554829 32.93253682 -5.0546875 34.4921875 C-5.21935516 35.23064911 -5.38402283 35.96911072 -5.55368042 36.72994995 C-5.97207673 38.50288752 -6.47813705 40.25471431 -7 42 C-7.99 42.495 -7.99 42.495 -9 43 C-8.38631896 34.19685124 -6.70778091 25.64100013 -5 17 C-4.81566406 16.06414062 -4.63132813 15.12828125 -4.44140625 14.1640625 C-4.0186629 12.09149778 -3.53078378 10.04730885 -3 8 C-2.34 8 -1.68 8 -1 8 C-1.020625 6.865625 -1.04125 5.73125 -1.0625 4.5625 C-1 1 -1 1 0 0 Z " fill="#30496F" transform="translate(199,108)"/>
<path d="M0 0 C-2 2 -2 2 -5 3 C-6.70855022 6.00007271 -6.70855022 6.00007271 -8 9 C-8.66 9 -9.32 9 -10 9 C-10 9.66 -10 10.32 -10 11 C-10.66 11 -11.32 11 -12 11 C-12.02698422 13.43757413 -12.04683099 15.87484915 -12.0625 18.3125 C-12.07087891 19.00279297 -12.07925781 19.69308594 -12.08789062 20.40429688 C-12.10307906 23.5483025 -12.00193327 25.99420019 -11 29 C-11.66 29.99 -12.32 30.98 -13 32 C-13 31.34 -13 30.68 -13 30 C-13.66 30 -14.32 30 -15 30 C-17.05831887 13.56126415 -17.05831887 13.56126415 -12.6328125 6.9609375 C-8.91318748 2.4640774 -6.11855 -0.33073243 0 0 Z " fill="#314A74" transform="translate(335,122)"/>
<path d="M0 0 C14.58296121 -0.92167592 14.58296121 -0.92167592 20.44921875 3.5 C24.78792855 7.69663618 26.9428525 11.78039122 27.09765625 17.79296875 C27.09102785 19.25784438 27.07913087 20.72270378 27.0625 22.1875 C27.05798828 22.93708984 27.05347656 23.68667969 27.04882812 24.45898438 C27.03706354 26.30602383 27.01912865 28.15302213 27 30 C26.34 30 25.68 30 25 30 C24.505 20.595 24.505 20.595 24 11 C23.34 11 22.68 11 22 11 C21.773125 10.401875 21.54625 9.80375 21.3125 9.1875 C18.64552572 4.74254287 13.80851636 3.29460056 9 2 C6.00699392 1.56822207 3.01292557 1.25442483 0 1 C0 0.67 0 0.34 0 0 Z " fill="#2E476F" transform="translate(336,121)"/>
<path d="M0 0 C9.57 0 19.14 0 29 0 C33.14545455 12.43636364 33.14545455 12.43636364 33 20 C32.34 19.67 31.68 19.34 31 19 C30.3671875 16.85546875 30.3671875 16.85546875 29.875 14.1875 C29.70742187 13.31480469 29.53984375 12.44210938 29.3671875 11.54296875 C29 9 29 9 29 5 C28.01 4.67 27.02 4.34 26 4 C26 3.34 26 2.68 26 2 C17.42 2 8.84 2 0 2 C-0.33 2.99 -0.66 3.98 -1 5 C-0.67 3.35 -0.34 1.7 0 0 Z " fill="#2A446B" transform="translate(101,6)"/>
<path d="M0 0 C2.47923801 -0.02685095 4.9581884 -0.04676547 7.4375 -0.0625 C8.14455078 -0.07087891 8.85160156 -0.07925781 9.58007812 -0.08789062 C11.38693559 -0.09653588 13.19387603 -0.05220011 15 0 C16 1 16 1 16.0625 3.5625 C16.041875 4.366875 16.02125 5.17125 16 6 C10.07794424 7.89505784 4.71218387 7.22914492 -1 5 C-0.67 3.35 -0.34 1.7 0 0 Z " fill="#335785" transform="translate(239,96)"/>
<path d="M0 0 C3 0.125 3 0.125 4 1.125 C4.07319621 3.82154854 4.09242537 6.49191458 4.0625 9.1875 C4.05798828 9.94611328 4.05347656 10.70472656 4.04882812 11.48632812 C4.0370068 13.36591871 4.01907078 15.24546899 4 17.125 C3.67 17.125 3.34 17.125 3 17.125 C2.67 13.825 2.34 10.525 2 7.125 C0.68 7.125 -0.64 7.125 -2 7.125 C-2.33 15.705 -2.66 24.285 -3 33.125 C-3.33 33.125 -3.66 33.125 -4 33.125 C-4.02465392 28.58602295 -4.04283789 24.04708457 -4.05493164 19.50805664 C-4.0599714 17.96280234 -4.0668032 16.41755284 -4.07543945 14.87231445 C-4.08752076 12.65574971 -4.09323173 10.43924782 -4.09765625 8.22265625 C-4.10281754 7.5278566 -4.10797882 6.83305695 -4.11329651 6.11720276 C-4.11349277 4.4527067 -4.06189129 2.78834501 -4 1.125 C-3 0.125 -3 0.125 0 0 Z " fill="#394E70" transform="translate(289,68.875)"/>
<path d="M0 0 C0.33 0 0.66 0 1 0 C0.51679152 6.2054142 -0.33318124 11.99945246 -2 18 C-12.08763377 19.5226617 -21.88200257 19.0959533 -32 18 C-32 17.67 -32 17.34 -32 17 C-30.94087402 16.970271 -30.94087402 16.970271 -29.86035156 16.93994141 C-26.65653006 16.84459585 -23.45335199 16.73495487 -20.25 16.625 C-19.13882813 16.5940625 -18.02765625 16.563125 -16.8828125 16.53125 C-15.81289062 16.49257812 -14.74296875 16.45390625 -13.640625 16.4140625 C-12.16384277 16.36693115 -12.16384277 16.36693115 -10.65722656 16.31884766 C-7.93041656 15.9916505 -6.26334738 15.54388967 -4 14 C-2.63722436 10.68674419 -2.63722436 10.68674419 -1.75 6.875 C-1.57726562 6.21628906 -1.40453125 5.55757812 -1.2265625 4.87890625 C-0.80327422 3.25630118 -0.39970259 1.62857546 0 0 Z " fill="#364E75" transform="translate(87,162)"/>
<path d="M0 0 C0.33 0 0.66 0 1 0 C1 8.91 1 17.82 1 27 C2.65 26.67 4.3 26.34 6 26 C6 25.34 6 24.68 6 24 C9.63 24 13.26 24 17 24 C17 24.33 17 24.66 17 25 C15.02 25.33 13.04 25.66 11 26 C11 26.33 11 26.66 11 27 C13.64 27.33 16.28 27.66 19 28 C19 28.33 19 28.66 19 29 C17.3338256 29.17151795 15.66702161 29.3369218 14 29.5 C13.071875 29.5928125 12.14375 29.685625 11.1875 29.78125 C7.46637298 30.03662146 3.72987947 30 0 30 C0 20.1 0 10.2 0 0 Z " fill="#233E6C" transform="translate(286,73)"/>
<path d="M0 0 C0.66 0 1.32 0 2 0 C2.33 2.31 2.66 4.62 3 7 C2.34 7 1.68 7 1 7 C1.185625 7.5775 1.37125 8.155 1.5625 8.75 C2.33300647 12.7126047 0.85595105 15.53555803 -1 19 C-1.33 18.67 -1.66 18.34 -2 18 C-2.66 21.96 -3.32 25.92 -4 30 C-6.62194846 26.06707732 -5.82450432 23.40570417 -5 19 C-4.39534712 16.02537071 -3.7142255 13.07506184 -3 10.125 C-2.82210937 9.36703125 -2.64421875 8.6090625 -2.4609375 7.828125 C-1.13632015 2.27264031 -1.13632015 2.27264031 0 0 Z " fill="#314F79" transform="translate(85,63)"/>
<path d="M0 0 C0.33 0.66 0.66 1.32 1 2 C2.11375 1.938125 3.2275 1.87625 4.375 1.8125 C6.169375 1.9053125 6.169375 1.9053125 8 2 C8.99 3.485 8.99 3.485 10 5 C12.05925139 5.72382467 12.05925139 5.72382467 14 6 C10.52614567 8.31590289 9.03569994 8.26991835 4.9375 8.25 C3.87402344 8.25515625 2.81054688 8.2603125 1.71484375 8.265625 C-1 8 -1 8 -3 6 C-3 5.01 -3 4.02 -3 3 C-3.33 2.34 -3.66 1.68 -4 1 C-2.68 0.67 -1.36 0.34 0 0 Z " fill="#29538B" transform="translate(249,156)"/>
<path d="M0 0 C6.6 0 13.2 0 20 0 C20.33 0.99 20.66 1.98 21 3 C17.89914429 5.06723714 17.27068319 5.24497423 13.76953125 5.1953125 C12.96708984 5.18886719 12.16464844 5.18242188 11.33789062 5.17578125 C10.50451172 5.15902344 9.67113281 5.14226562 8.8125 5.125 C7.96751953 5.11597656 7.12253906 5.10695313 6.25195312 5.09765625 C4.16784757 5.07410703 2.08388783 5.03823647 0 5 C0 3.35 0 1.7 0 0 Z " fill="#476191" transform="translate(234,69)"/>
<path d="M0 0 C0.65625 1.77734375 0.65625 1.77734375 1 4 C-1.25976318 8.23705595 -5.20918033 11.92151621 -9.73828125 13.5703125 C-16.16791041 14.79183099 -24.25953937 15.57532411 -30 12 C-30 11.34 -30 10.68 -30 10 C-28.69675781 10.2165625 -28.69675781 10.2165625 -27.3671875 10.4375 C-26.21476562 10.623125 -25.06234375 10.80875 -23.875 11 C-22.16957031 11.2784375 -22.16957031 11.2784375 -20.4296875 11.5625 C-17.23862398 11.96956049 -14.21182209 12.07809902 -11 12 C-10.67 11.01 -10.34 10.02 -10 9 C-8.5459375 8.319375 -8.5459375 8.319375 -7.0625 7.625 C-3.50516788 5.73743602 -3.17130812 4.70914237 -2 1 C-1.34 0.67 -0.68 0.34 0 0 Z " fill="#2F476E" transform="translate(309,152)"/>
<path d="M0 0 C0.33 0 0.66 0 1 0 C1.03738281 0.95261719 1.07476562 1.90523437 1.11328125 2.88671875 C1.17902344 4.14097656 1.24476563 5.39523438 1.3125 6.6875 C1.37050781 7.92886719 1.42851562 9.17023438 1.48828125 10.44921875 C2.01353544 14.09392151 2.80569431 16.07967713 5 19 C7.45951456 20.22975728 8.78256624 20.01468511 11.5 19.75 C12.2940625 19.68296875 13.088125 19.6159375 13.90625 19.546875 C16.38135838 19.14822839 16.38135838 19.14822839 18 16 C18.66 16 19.32 16 20 16 C19.65557106 18.49710982 19.15296001 19.82154665 17.5 21.75 C13.69411452 23.65294274 10.16968804 23.66268256 6 23 C2.73216694 21.19226256 1.41222079 19.78518245 -0.3125 16.5 C-1.32244872 11.3584429 -1.34935015 6.22400338 -1 1 C-0.67 0.67 -0.34 0.34 0 0 Z " fill="#2D466D" transform="translate(280,135)"/>
<path d="M0 0 C0.33 0 0.66 0 1 0 C1.33 1.98 1.66 3.96 2 6 C2.804375 5.979375 3.60875 5.95875 4.4375 5.9375 C7 6 7 6 8 7 C8.15858842 9.14386657 8.25129298 11.29266838 8.31640625 13.44140625 C8.37924805 15.39916992 8.37924805 15.39916992 8.44335938 17.39648438 C8.48317608 18.7851533 8.52288825 20.17382522 8.5625 21.5625 C8.60567989 22.95509183 8.649294 24.34767028 8.69335938 25.74023438 C8.79985876 29.16004801 8.90186923 32.57993763 9 36 C6.74871895 34.23094912 6.05521216 33.32481958 5.56762695 30.45629883 C5.54144287 29.46654053 5.51525879 28.47678223 5.48828125 27.45703125 C5.43510742 25.84731445 5.43510742 25.84731445 5.38085938 24.20507812 C5.35830078 23.08552734 5.33574219 21.96597656 5.3125 20.8125 C5.26125977 19.11577148 5.26125977 19.11577148 5.20898438 17.38476562 C5.12643686 14.5899426 5.05730818 11.79543602 5 9 C3.35 8.67 1.7 8.34 0 8 C0 5.36 0 2.72 0 0 Z " fill="#2A4269" transform="translate(233,122)"/>
<path d="M0 0 C0.66 0 1.32 0 2 0 C2.14099121 0.60062256 2.28198242 1.20124512 2.42724609 1.82006836 C3.06795256 4.52798459 3.7212927 7.23269425 4.375 9.9375 C4.59671875 10.88302734 4.8184375 11.82855469 5.046875 12.80273438 C5.26601562 13.70185547 5.48515625 14.60097656 5.7109375 15.52734375 C5.90993652 16.35999756 6.10893555 17.19265137 6.31396484 18.05053711 C6.81563401 20.19750626 6.81563401 20.19750626 9 21 C9.66 19.68 10.32 18.36 11 17 C11 18.65 11 20.3 11 22 C11.66 22 12.32 22 13 22 C13 22.66 13 23.32 13 24 C8.75758818 23.83683031 6.66826008 23.70438224 3.6875 20.5625 C0.55925046 13.95841765 -0.3152995 7.25188858 0 0 Z " fill="#2D4871" transform="translate(155,107)"/>
<path d="M0 0 C1.28982422 3.86947265 0.49189543 5.78455112 -0.546875 9.71484375 C-0.71874329 10.36699356 -0.89061157 11.01914337 -1.06768799 11.6910553 C-1.43354622 13.06980492 -1.80367116 14.44742839 -2.17773438 15.82397461 C-2.74608653 17.92304655 -3.29576522 20.02639083 -3.84375 22.13085938 C-4.20200572 23.47165374 -4.56134573 24.81215894 -4.921875 26.15234375 C-5.24768555 27.36913818 -5.57349609 28.58593262 -5.90917969 29.83959961 C-6.92690123 32.78821316 -7.96791397 34.6684601 -10 37 C-10.33 35.68 -10.66 34.36 -11 33 C-10.34 33 -9.68 33 -9 33 C-9.495 31.515 -9.495 31.515 -10 30 C-9.40788028 27.97667633 -8.72398516 25.9799722 -8 24 C-7.11374521 21.17623768 -6.2778445 18.33772119 -5.4375 15.5 C-5.10588867 14.39978516 -5.10588867 14.39978516 -4.76757812 13.27734375 C-3.79948763 10.00747917 -2.98664538 6.91215625 -2.47265625 3.53125 C-2.31667969 2.6959375 -2.16070312 1.860625 -2 1 C-1.34 0.67 -0.68 0.34 0 0 Z " fill="#3B5274" transform="translate(103,104)"/>
<path d="M0 0 C0.99 0.33 1.98 0.66 3 1 C2.67 1.99 2.34 2.98 2 4 C6.29 4 10.58 4 15 4 C15 4.33 15 4.66 15 5 C11.04 5 7.08 5 3 5 C1.97437544 8.74506847 1.97437544 8.74506847 1.6875 11.625 C1 14 1 14 -1.04296875 15.1484375 C-1.68878906 15.42945312 -2.33460938 15.71046875 -3 16 C-3.08133791 14.08404032 -3.13934367 12.16708068 -3.1875 10.25 C-3.22230469 9.18265625 -3.25710937 8.1153125 -3.29296875 7.015625 C-2.97082786 3.69972145 -2.22851086 2.40983327 0 0 Z " fill="#28558E" transform="translate(237,84)"/>
<path d="M0 0 C2.64455304 2.64455304 2.96944684 4.95854306 3.9375 8.5625 C6.23042415 16.85744483 6.23042415 16.85744483 9 25 C9.66 25.33 10.32 25.66 11 26 C10.67 26.99 10.34 27.98 10 29 C8.68 29 7.36 29 6 29 C4.98780154 25.29488701 3.992434 21.58545143 3 17.875 C2.71382812 16.82828125 2.42765625 15.7815625 2.1328125 14.703125 C1.86210937 13.68476563 1.59140625 12.66640625 1.3125 11.6171875 C1.06113281 10.68503418 0.80976563 9.75288086 0.55078125 8.79248047 C-0.03985386 5.7979395 -0.09428371 3.04457826 0 0 Z " fill="#2F4972" transform="translate(132,127)"/>
<path d="M0 0 C0.33 0.99 0.66 1.98 1 3 C1.66 3 2.32 3 3 3 C3.85016724 5.99548288 4.67694586 8.99696463 5.5 12 C5.73847656 12.83917969 5.97695312 13.67835937 6.22265625 14.54296875 C7.66864627 19.87247482 8.2555952 24.47914367 8 30 C4.40315765 24.60473648 3.45886348 20.27759628 2.5625 13.875 C2.04359404 11.22281396 1.34103019 9.32445234 0 7 C-0.33 7 -0.66 7 -1 7 C-1.04254356 5.00045254 -1.04080783 2.99958364 -1 1 C-0.67 0.67 -0.34 0.34 0 0 Z " fill="#304A71" transform="translate(134,27)"/>
<path d="M0 0 C0.99 0.33 1.98 0.66 3 1 C3.9140625 3.25 3.9140625 3.25 4.625 6 C5.287116 9.28439007 5.287116 9.28439007 7 12 C8.92478813 12.15806531 10.8549921 12.251135 12.78515625 12.31640625 C13.95498047 12.35830078 15.12480469 12.40019531 16.33007812 12.44335938 C18.17762695 12.50233398 18.17762695 12.50233398 20.0625 12.5625 C21.29806641 12.60568359 22.53363281 12.64886719 23.80664062 12.69335938 C26.87097335 12.79984198 29.93539073 12.90185424 33 13 C33 13.66 33 14.32 33 15 C29.66668561 15.02937438 26.33340517 15.04692334 23 15.0625 C22.06542969 15.07087891 21.13085938 15.07925781 20.16796875 15.08789062 C14.67725599 15.10708892 9.43133519 14.8134193 4 14 C3.32968281 12.0429132 2.66385317 10.08428887 2 8.125 C1.62875 7.03445312 1.2575 5.94390625 0.875 4.8203125 C0 2 0 2 0 0 Z " fill="#3E5876" transform="translate(141,166)"/>
<path d="M0 0 C3 2 3 2 3.51171875 3.8828125 C3.56972656 4.62273438 3.62773438 5.36265625 3.6875 6.125 C3.75195312 6.92035156 3.81640625 7.71570312 3.8828125 8.53515625 C4.04908437 12.03240788 4.06365072 15.49921064 4 19 C2.35 19.33 0.7 19.66 -1 20 C-2.22764228 12.63414634 -2.22764228 12.63414634 -1.125 9.5625 C0 8 0 8 1 7 C0.71269945 4.66055264 0.38063221 2.3260857 0 0 Z " fill="#2D5489" transform="translate(44,32)"/>
<path d="M0 0 C3.96 0 7.92 0 12 0 C12 1.65 12 3.3 12 5 C7.71 5 3.42 5 -1 5 C-1.33 5.66 -1.66 6.32 -2 7 C-1.125 2.25 -1.125 2.25 0 0 Z " fill="#20406F" transform="translate(240,83)"/>
<path d="M0 0 C2.88951956 2.43165893 3.69126412 4.5653405 4.640625 8.18359375 C4.90617188 9.19357422 5.17171875 10.20355469 5.4453125 11.24414062 C5.71085938 12.29794922 5.97640625 13.35175781 6.25 14.4375 C6.53101563 15.48744141 6.81203125 16.53738281 7.1015625 17.61914062 C9.30511519 26.17699748 9.30511519 26.17699748 8 30 C8 29.01 8 28.02 8 27 C7.34 27 6.68 27 6 27 C5.85900879 26.45585449 5.71801758 25.91170898 5.57275391 25.35107422 C4.9256261 22.85849266 4.27533833 20.36674575 3.625 17.875 C3.40328125 17.0190625 3.1815625 16.163125 2.953125 15.28125 C1.99889859 11.63273726 1.0241775 8.06883659 -0.2265625 4.5078125 C-1 2 -1 2 0 0 Z " fill="#344C71" transform="translate(142,58)"/>
<path d="M0 0 C0.66 0 1.32 0 2 0 C2.02886537 4.31248609 2.04675255 8.62494762 2.0625 12.9375 C2.07087891 14.16919922 2.07925781 15.40089844 2.08789062 16.66992188 C2.09111328 17.83974609 2.09433594 19.00957031 2.09765625 20.21484375 C2.10289307 21.29886475 2.10812988 22.38288574 2.11352539 23.49975586 C2 26 2 26 1 27 C-0.68608966 27.07205511 -2.37500659 27.08386068 -4.0625 27.0625 C-4.98160156 27.05347656 -5.90070313 27.04445312 -6.84765625 27.03515625 C-7.55792969 27.02355469 -8.26820313 27.01195312 -9 27 C-9 26.67 -9 26.34 -9 26 C-6.03 25.67 -3.06 25.34 0 25 C0 16.75 0 8.5 0 0 Z " fill="#43557C" transform="translate(383,139)"/>
<path d="M0 0 C0.66 0 1.32 0 2 0 C2.33 1.98 2.66 3.96 3 6 C-0.79870482 8.63954122 -3.38553588 9.41031478 -8 9.375 C-9.010625 9.38273438 -10.02125 9.39046875 -11.0625 9.3984375 C-14.40303832 8.94533257 -16.30547798 7.9979131 -19 6 C-19.8125 3.8125 -19.8125 3.8125 -20 2 C-19.34 1.67 -18.68 1.34 -18 1 C-18 1.99 -18 2.98 -18 4 C-17.34 4 -16.68 4 -16 4 C-16 4.66 -16 5.32 -16 6 C-13.70839681 6.02692484 -11.41670454 6.04636124 -9.125 6.0625 C-7.21074219 6.07990234 -7.21074219 6.07990234 -5.2578125 6.09765625 C-2.11335348 6.23176569 -2.11335348 6.23176569 0 5 C-0.66 4.34 -1.32 3.68 -2 3 C-1.34 2.01 -0.68 1.02 0 0 Z " fill="#324A70" transform="translate(262,157)"/>
<path d="M0 0 C0.33 0 0.66 0 1 0 C1.22215767 5.58356282 0.44184343 10.45819725 -0.875 15.875 C-1.04902344 16.64585937 -1.22304687 17.41671875 -1.40234375 18.2109375 C-1.86523502 20.15850964 -2.42516461 22.08248342 -3 24 C-3.66 24.33 -4.32 24.66 -5 25 C-5.33448703 19.53671185 -4.67265287 14.48614115 -3.625 9.125 C-3.43587036 8.12521118 -3.43587036 8.12521118 -3.24291992 7.10522461 C-2.24753818 2.24753818 -2.24753818 2.24753818 0 0 Z " fill="#304971" transform="translate(189,152)"/>
<path d="M0 0 C0.99 0 1.98 0 3 0 C3 1.65 3 3.3 3 5 C2.34 5 1.68 5 1 5 C1 5.66 1 6.32 1 7 C1.66 7.33 2.32 7.66 3 8 C2.34 8 1.68 8 1 8 C-0.32 14.27 -1.64 20.54 -3 27 C-3.66 27 -4.32 27 -5 27 C-3.09615385 7.96153846 -3.09615385 7.96153846 0 0 Z " fill="#3A5377" transform="translate(171,93)"/>
<path d="M0 0 C1.65 0 3.3 0 5 0 C5.33 2.97 5.66 5.94 6 9 C5.34 8.67 4.68 8.34 4 8 C3.375 5.4375 3.375 5.4375 3 3 C2.34 3 1.68 3 1 3 C0.01 7.62 -0.98 12.24 -2 17 C-2.66 17 -3.32 17 -4 17 C-5.34498518 11.86460203 -4.6115413 9.54601633 -2 5 C-1.31471955 3.34089996 -0.64108137 1.67667436 0 0 Z " fill="#304971" transform="translate(112,66)"/>
<path d="M0 0 C1.26237731 3.78713193 0.67558873 6.25651933 0.0625 10.1875 C-0.13214844 11.45980469 -0.32679688 12.73210937 -0.52734375 14.04296875 C-0.68332031 15.01878906 -0.83929688 15.99460937 -1 17 C-1.66 17 -2.32 17 -3 17 C-3.99 22.445 -3.99 22.445 -5 28 C-5.33 28 -5.66 28 -6 28 C-6.23736822 22.15282958 -5.36170139 16.89299115 -4.125 11.1875 C-3.95097656 10.32962891 -3.77695313 9.47175781 -3.59765625 8.58789062 C-3.42363281 7.76869141 -3.24960938 6.94949219 -3.0703125 6.10546875 C-2.91320801 5.36449951 -2.75610352 4.62353027 -2.59423828 3.86010742 C-2 2 -2 2 0 0 Z " fill="#2F476F" transform="translate(178,68)"/>
<path d="M0 0 C0.99 0.495 0.99 0.495 2 1 C2.03758423 1.97610229 2.03758423 1.97610229 2.07592773 2.97192383 C2.19193702 5.91898046 2.31464115 8.8657213 2.4375 11.8125 C2.47681641 12.83666016 2.51613281 13.86082031 2.55664062 14.91601562 C2.59853516 15.89892578 2.64042969 16.88183594 2.68359375 17.89453125 C2.72025146 18.80050049 2.75690918 19.70646973 2.79467773 20.63989258 C2.9208205 23.15048782 2.9208205 23.15048782 4 26 C6.64 26 9.28 26 12 26 C12 26.33 12 26.66 12 27 C10.54207116 27.05399736 9.08357288 27.09279177 7.625 27.125 C6.40683594 27.15980469 6.40683594 27.15980469 5.1640625 27.1953125 C3 27 3 27 1 25 C-0.29741713 19.76137233 -0.11495812 14.48379897 -0.0625 9.125 C-0.05798828 8.24585938 -0.05347656 7.36671875 -0.04882812 6.4609375 C-0.03712337 4.30726197 -0.01919069 2.15362183 0 0 Z " fill="#264069" transform="translate(249,130)"/>
<path d="M0 0 C0.33 1.32 0.66 2.64 1 4 C-0.10067996 4.81721717 -1.20569731 5.62859451 -2.3125 6.4375 C-2.92738281 6.88996094 -3.54226563 7.34242188 -4.17578125 7.80859375 C-8.0234942 10.32155403 -11.52930052 10.13431396 -16 10.125 C-17.2375 10.12757813 -18.475 10.13015625 -19.75 10.1328125 C-23 10 -23 10 -26 9 C-26 8.34 -26 7.68 -26 7 C-24.15535156 7.06960937 -24.15535156 7.06960937 -22.2734375 7.140625 C-20.6406494 7.17816036 -19.00783489 7.21455862 -17.375 7.25 C-16.56675781 7.28351563 -15.75851562 7.31703125 -14.92578125 7.3515625 C-9.43629774 7.44082239 -6.3291334 6.70307411 -2 3 C-1.34 2.01 -0.68 1.02 0 0 Z " fill="#2F466C" transform="translate(357,156)"/>
<path d="M0 0 C0.99 0.33 1.98 0.66 3 1 C4.50913724 5.52741172 4.77429281 10.06426798 3 14.5 C2.67 14.995 2.34 15.49 2 16 C1.01 15.67 0.02 15.34 -1 15 C-1.02693575 12.87506859 -1.04636628 10.75004088 -1.0625 8.625 C-1.07410156 7.44164062 -1.08570313 6.25828125 -1.09765625 5.0390625 C-1 2 -1 2 0 0 Z " fill="#2F507E" transform="translate(211,38)"/>
<path d="M0 0 C0.66 0 1.32 0 2 0 C0.83675515 7.84163878 -0.7547013 15.39592172 -3 23 C-3.99 22.67 -4.98 22.34 -6 22 C-1.89041096 3.78082192 -1.89041096 3.78082192 0 0 Z " fill="#3C5376" transform="translate(98,12)"/>
<path d="M0 0 C0.66 0 1.32 0 2 0 C3.4606285 2.64738916 4 3.89448334 4 7 C4.66 7 5.32 7 6 7 C6.99250545 12.70690634 7.10477512 18.21408489 7 24 C4.73643179 21.73643179 4.56722557 20.81668455 3.96484375 17.75390625 C3.79533203 16.91666016 3.62582031 16.07941406 3.45117188 15.21679688 C3.28166016 14.34087891 3.11214844 13.46496094 2.9375 12.5625 C2.59391237 10.83434361 2.24891803 9.10646616 1.90234375 7.37890625 C1.75273193 6.6113501 1.60312012 5.84379395 1.44897461 5.05297852 C0.99815798 2.81739869 0.99815798 2.81739869 0 0 Z " fill="#3D5578" transform="translate(18,65)"/>
<path d="M0 0 C-1.125 2.9375 -1.125 2.9375 -3 6 C-6.1875 6.875 -6.1875 6.875 -9 7 C-9.33 7.99 -9.66 8.98 -10 10 C-10.99 8.35 -11.98 6.7 -13 5 C-11.40377344 3.96679519 -9.79770894 2.94877571 -8.1875 1.9375 C-7.29417969 1.36902344 -6.40085937 0.80054687 -5.48046875 0.21484375 C-3 -1 -3 -1 0 0 Z " fill="#285690" transform="translate(339,124)"/>
<path d="M0 0 C0.33 0 0.66 0 1 0 C1 3.63 1 7.26 1 11 C1.33 10.34 1.66 9.68 2 9 C2.99 9 3.98 9 5 9 C5 7.02 5 5.04 5 3 C5.33 3 5.66 3 6 3 C6 4.65 6 6.3 6 8 C9.96 8 13.92 8 18 8 C18 8.33 18 8.66 18 9 C17.14535156 9.04898438 16.29070312 9.09796875 15.41015625 9.1484375 C14.30542969 9.22320312 13.20070312 9.29796875 12.0625 9.375 C10.96035156 9.44460937 9.85820312 9.51421875 8.72265625 9.5859375 C7.37494141 9.79089844 7.37494141 9.79089844 6 10 C5.67 10.66 5.34 11.32 5 12 C6.32 12 7.64 12 9 12 C8.67 12.66 8.34 13.32 8 14 C5.36 13.67 2.72 13.34 0 13 C0 8.71 0 4.42 0 0 Z " fill="#1D3A68" transform="translate(233,89)"/>
<path d="M0 0 C-0.165 0.928125 -0.33 1.85625 -0.5 2.8125 C-1.07748388 5.95621353 -1.07748388 5.95621353 -1 9 C-2.875 9.625 -2.875 9.625 -5 10 C-5.66 9.34 -6.32 8.68 -7 8 C-6.8125 5 -6.8125 5 -6 2 C-3 0 -3 0 0 0 Z " fill="#245287" transform="translate(330,150)"/>
<path d="M0 0 C3.96 0 7.92 0 12 0 C12.1953125 6.0546875 12.1953125 6.0546875 12 8 C11.34 8.66 10.68 9.32 10 10 C6.375 9.625 6.375 9.625 3 9 C3 8.67 3 8.34 3 8 C5.31 8 7.62 8 10 8 C10 6.02 10 4.04 10 2 C6.7 2 3.4 2 0 2 C0 1.34 0 0.68 0 0 Z " fill="#30466E" transform="translate(252,121)"/>
<path d="M0 0 C0.66 0 1.32 0 2 0 C2.19335938 0.78246094 2.38671875 1.56492187 2.5859375 2.37109375 C2.84632812 3.38300781 3.10671875 4.39492187 3.375 5.4375 C3.63023438 6.44683594 3.88546875 7.45617187 4.1484375 8.49609375 C4.72573954 11.15570324 4.72573954 11.15570324 7 12 C7 13.98 7 15.96 7 18 C6.34 18 5.68 18 5 18 C5 17.01 5 16.02 5 15 C4.34 15 3.68 15 3 15 C2.49564306 13.0636296 1.99666126 11.12585854 1.5 9.1875 C1.2215625 8.10855469 0.943125 7.02960938 0.65625 5.91796875 C0 3 0 3 0 0 Z " fill="#314A72" transform="translate(118,79)"/>
<path d="M0 0 C9.57 0 19.14 0 29 0 C28.67 1.65 28.34 3.3 28 5 C27.34 4.01 26.68 3.02 26 2 C23.28516406 1.58262128 23.28516406 1.58262128 20.1171875 1.70703125 C18.36728516 1.7215332 18.36728516 1.7215332 16.58203125 1.73632812 C14.74705078 1.7740332 14.74705078 1.7740332 12.875 1.8125 C11.64394531 1.82603516 10.41289062 1.83957031 9.14453125 1.85351562 C6.09592157 1.88896457 3.048175 1.93837921 0 2 C0 1.34 0 0.68 0 0 Z " fill="#263F64" transform="translate(195,6)"/>
<path d="M0 0 C1.32 0 2.64 0 4 0 C4.33 1.98 4.66 3.96 5 6 C5.66 5.67 6.32 5.34 7 5 C7.66 5.66 8.32 6.32 9 7 C8.34 7 7.68 7 7 7 C7.226875 7.70125 7.45375 8.4025 7.6875 9.125 C8.09532639 12.87700275 6.86377293 14.79431057 5 18 C4.34 18 3.68 18 3 18 C3.17917969 17.38511719 3.35835938 16.77023438 3.54296875 16.13671875 C3.86201172 14.92435547 3.86201172 14.92435547 4.1875 13.6875 C4.40792969 12.88699219 4.62835938 12.08648437 4.85546875 11.26171875 C4.90316406 10.51535156 4.95085937 9.76898438 5 9 C4.0318067 7.96917425 3.03066831 6.9683609 2 6 C2 4.68 2 3.36 2 2 C1.34 1.34 0.68 0.68 0 0 Z " fill="#2C476F" transform="translate(380,121)"/>
<path d="M0 0 C-0.33 1.32 -0.66 2.64 -1 4 C-1 3.34 -1 2.68 -1 2 C-2.1240625 2.17402344 -3.248125 2.34804687 -4.40625 2.52734375 C-9.16088842 3.12167355 -13.73307202 2.9002221 -18.5 2.5625 C-19.32242187 2.51029297 -20.14484375 2.45808594 -20.9921875 2.40429688 C-22.99522899 2.27619538 -24.99768871 2.13904939 -27 2 C-27 1.67 -27 1.34 -27 1 C-17.97859571 0.24258075 -9.05293337 -0.13534286 0 0 Z " fill="#284570" transform="translate(40,6)"/>
<path d="M0 0 C7.09629025 -0.31461385 12.68284595 -0.44572039 19 3 C18.67 3.66 18.34 4.32 18 5 C17.071875 4.690625 16.14375 4.38125 15.1875 4.0625 C10.22128454 2.6216844 5.13794694 2.35305964 0 2 C0 1.34 0 0.68 0 0 Z " fill="#2E446B" transform="translate(284,120)"/>
<path d="M0 0 C0.66 0 1.32 0 2 0 C5.49306714 5.38514518 5.78568159 10.75536189 5 17 C4.34 17.66 3.68 18.32 3 19 C2.80083984 17.31970703 2.80083984 17.31970703 2.59765625 15.60546875 C2.41943431 14.13279271 2.24103989 12.66013753 2.0625 11.1875 C1.97548828 10.44951172 1.88847656 9.71152344 1.79882812 8.95117188 C1.41783454 5.83266879 0.99630626 2.98891878 0 0 Z " fill="#2C446D" transform="translate(307,129)"/>
<path d="M0 0 C0.66 0.33 1.32 0.66 2 1 C2.39171753 2.65391846 2.72057545 4.32345271 3 6 C3.33 6.99 3.66 7.98 4 9 C2.68 9.33 1.36 9.66 0 10 C-0.33 8.35 -0.66 6.7 -1 5 C-1.99 5.33 -2.98 5.66 -4 6 C-2.84826645 3.53199953 -1.95216435 1.95216435 0 0 Z " fill="#3D5B82" transform="translate(388,122)"/>
<path d="M0 0 C0.99 0 1.98 0 3 0 C3.33 0.99 3.66 1.98 4 3 C0.36804504 5.42130331 -1.38349348 5.21022785 -5.6875 5.125 C-7.45673828 5.09792969 -7.45673828 5.09792969 -9.26171875 5.0703125 C-10.16535156 5.04710938 -11.06898438 5.02390625 -12 5 C-12.33 4.34 -12.66 3.68 -13 3 C-8.71 3 -4.42 3 0 3 C0 2.01 0 1.02 0 0 Z " fill="#375988" transform="translate(251,69)"/>
<path d="M0 0 C4.29 0 8.58 0 13 0 C13 0.33 13 0.66 13 1 C9.04 1 5.08 1 1 1 C0.67 2.32 0.34 3.64 0 5 C-0.63654342 6.3479743 -1.29605388 7.68596724 -2 9 C-2.66 8.67 -3.32 8.34 -4 8 C-3.67 6.02 -3.34 4.04 -3 2 C-2.01 2 -1.02 2 0 2 C0 1.34 0 0.68 0 0 Z " fill="#4A608B" transform="translate(239,88)"/>
<path d="M0 0 C0.33 0.99 0.66 1.98 1 3 C-3.95 3.33 -8.9 3.66 -14 4 C-14.33 5.65 -14.66 7.3 -15 9 C-15.66 8.67 -16.32 8.34 -17 8 C-17.625 5.4375 -17.625 5.4375 -18 3 C-14.40985408 0.73953776 -11.4905135 0.82053434 -7.3125 0.9375 C-5.20891853 0.99131799 -3.10416952 1.0205428 -1 1 C-0.67 0.67 -0.34 0.34 0 0 Z " fill="#264676" transform="translate(253,72)"/>
<path d="M0 0 C0.66 0 1.32 0 2 0 C5.62870159 10.37357631 5.62870159 10.37357631 4 16 C1.11388804 11.0523795 0 5.66834163 0 0 Z " fill="#3F5579" transform="translate(15,48)"/>
<path d="M0 0 C0.33 0 0.66 0 1 0 C4.44419134 12.48519362 4.44419134 12.48519362 4 19 C3.34 18.67 2.68 18.34 2 18 C0.13639409 12.09858129 -0.22742222 6.14040005 0 0 Z " fill="#334B70" transform="translate(130,7)"/>
<path d="M0 0 C2.97 0.495 2.97 0.495 6 1 C6 2.32 6 3.64 6 5 C3.03 5 0.06 5 -3 5 C-2.67 4.01 -2.34 3.02 -2 2 C-1.34 2 -0.68 2 0 2 C0 1.34 0 0.68 0 0 Z " fill="#244879" transform="translate(392,125)"/>
<path d="M0 0 C0.33 0 0.66 0 1 0 C1 5.28 1 10.56 1 16 C0.67 16 0.34 16 0 16 C-0.33 12.7 -0.66 9.4 -1 6 C-2.32 6 -3.64 6 -5 6 C-4.67 4.35 -4.34 2.7 -4 1 C-3.01 1.33 -2.02 1.66 -1 2 C-0.67 1.34 -0.34 0.68 0 0 Z " fill="#5D7A9B" transform="translate(292,70)"/>
<path d="M0 0 C0.99 0.33 1.98 0.66 3 1 C3.94921875 3.1796875 3.94921875 3.1796875 4.6875 5.875 C4.93886719 6.75929687 5.19023437 7.64359375 5.44921875 8.5546875 C6 11 6 11 6 14 C5.34 14 4.68 14 4 14 C3.32968281 12.0429132 2.66385317 10.08428887 2 8.125 C1.62875 7.03445312 1.2575 5.94390625 0.875 4.8203125 C0 2 0 2 0 0 Z " fill="#385073" transform="translate(141,166)"/>
<path d="M0 0 C0.33 0 0.66 0 1 0 C0.85761163 2.04190981 0.71092972 4.08352045 0.5625 6.125 C0.48128906 7.26195313 0.40007812 8.39890625 0.31640625 9.5703125 C0.02269035 12.7540478 -0.43124313 15.85510907 -1 19 C-3.61514428 15.07728357 -2.84728768 12.39190403 -2 8 C-1.39303927 5.31203105 -0.71328378 2.6629261 0 0 Z " fill="#3F5579" transform="translate(82,74)"/>
<path d="M0 0 C0.33 0 0.66 0 1 0 C1.34937311 5.58996969 0.52472638 9.96212855 -2 15 C-2.66 15.66 -3.32 16.32 -4 17 C-2.07289294 5.47835991 -2.07289294 5.47835991 0 0 Z " fill="#2F456C" transform="translate(92,143)"/>
<path d="M0 0 C-0.969375 0.45375 -1.93875 0.9075 -2.9375 1.375 C-6.07079582 2.65786221 -6.07079582 2.65786221 -7 5 C-7.66 5 -8.32 5 -9 5 C-9.66 6.98 -10.32 8.96 -11 11 C-11.66 11 -12.32 11 -13 11 C-12.40503246 7.67258892 -11.29522827 5.82909592 -9.0625 3.3125 C-8.53785156 2.71050781 -8.01320313 2.10851562 -7.47265625 1.48828125 C-4.81010285 -1.20252205 -3.47248692 -1.04174608 0 0 Z " fill="#30466B" transform="translate(283,123)"/>
<path d="M0 0 C2.47923801 -0.02685095 4.9581884 -0.04676547 7.4375 -0.0625 C8.14455078 -0.07087891 8.85160156 -0.07925781 9.58007812 -0.08789062 C11.38693559 -0.09653588 13.19387603 -0.05220011 15 0 C16 1 16 1 16.0625 3.5625 C16.041875 4.366875 16.02125 5.17125 16 6 C15.01 6.495 15.01 6.495 14 7 C13.34 6.34 12.68 5.68 12 5 C12.66 5 13.32 5 14 5 C13.34 4.01 12.68 3.02 12 2 C9.11404054 1.41518879 9.11404054 1.41518879 5.875 1.3125 C4.77929688 1.24675781 3.68359375 1.18101563 2.5546875 1.11328125 C1.71164063 1.07589844 0.86859375 1.03851563 0 1 C0 0.67 0 0.34 0 0 Z " fill="#3A4D70" transform="translate(239,96)"/>
<path d="M0 0 C3.05076467 5.76825253 4.32703913 11.45921737 4 18 C0.67402719 14.46894039 0.53229836 11.49764465 0.3125 6.75 C0.24675781 5.48671875 0.18101562 4.2234375 0.11328125 2.921875 C0.07589844 1.95765625 0.03851563 0.9934375 0 0 Z " fill="#32486F" transform="translate(151,88)"/>
<path d="M0 0 C0.33 0 0.66 0 1 0 C0.18754124 11.0109542 0.18754124 11.0109542 -2 15 C-2.99 15.495 -2.99 15.495 -4 16 C-3.52417032 13.70763814 -3.04423615 11.41612791 -2.5625 9.125 C-2.29566406 7.84882813 -2.02882813 6.57265625 -1.75390625 5.2578125 C-1 2 -1 2 0 0 Z " fill="#2C4369" transform="translate(87,162)"/>
<path d="M0 0 C2.0625 0.4375 2.0625 0.4375 4 1 C3.52949219 1.39832031 3.05898437 1.79664063 2.57421875 2.20703125 C0.68239447 4.3617393 0.33939211 5.89091882 -0.1875 8.6875 C-0.42533203 9.89986328 -0.42533203 9.89986328 -0.66796875 11.13671875 C-0.77753906 11.75160156 -0.88710937 12.36648437 -1 13 C-1.99 12.67 -2.98 12.34 -4 12 C-3.52494322 10.18641846 -3.04483958 8.37415821 -2.5625 6.5625 C-2.29566406 5.55316406 -2.02882812 4.54382813 -1.75390625 3.50390625 C-1 1 -1 1 0 0 Z " fill="#374E71" transform="translate(191,6)"/>
<path d="M0 0 C1.5 1.0625 1.5 1.0625 3 3 C3.1875 6.6875 3.1875 6.6875 3 10 C1.0625 9.375 1.0625 9.375 -1 8 C-1.75 4.875 -1.75 4.875 -2 2 C-1.34 2 -0.68 2 0 2 C0 1.34 0 0.68 0 0 Z " fill="#345684" transform="translate(141,155)"/>
<path d="M0 0 C0.99 0 1.98 0 3 0 C3 0.99 3 1.98 3 3 C3.20625 3.66 3.4125 4.32 3.625 5 C4 7 4 7 2 10 C1.34 10 0.68 10 0 10 C0 6.7 0 3.4 0 0 Z " fill="#365682" transform="translate(91,135)"/>
<path d="M0 0 C4.62 0 9.24 0 14 0 C14 1.65 14 3.3 14 5 C12.35 4.67 10.7 4.34 9 4 C9.66 3.67 10.32 3.34 11 3 C11 2.34 11 1.68 11 1 C7.37 1 3.74 1 0 1 C0 0.67 0 0.34 0 0 Z " fill="#233F69" transform="translate(267,97)"/>
<path d="M0 0 C5.27315333 0.4452885 10.01770224 1.08373163 15 3 C15 3.33 15 3.66 15 4 C4.84682713 4.63019694 4.84682713 4.63019694 1.3125 2 C0.879375 1.34 0.44625 0.68 0 0 Z " fill="#37567F" transform="translate(325,160)"/>
<path d="M0 0 C0.66 0 1.32 0 2 0 C2 3.63 2 7.26 2 11 C-0.48931701 8.51068299 -1.77628741 7.16125753 -3 4 C-2.67 3.34 -2.34 2.68 -2 2 C-1.34 2 -0.68 2 0 2 C0 1.34 0 0.68 0 0 Z " fill="#2D5082" transform="translate(189,144)"/>
<path d="M0 0 C0.33 0 0.66 0 1 0 C0.91231752 1.5843317 0.80412671 3.16753567 0.6875 4.75 C0.62949219 5.63171875 0.57148437 6.5134375 0.51171875 7.421875 C-0.0641181 10.32303774 -1.07596148 11.79225607 -3 14 C-3.33 12.68 -3.66 11.36 -4 10 C-3.34 10 -2.68 10 -2 10 C-2.33 9.01 -2.66 8.02 -3 7 C-2.07796291 4.63477442 -1.08301035 2.29598193 0 0 Z " fill="#2A436B" transform="translate(96,127)"/>
<path d="M0 0 C2 3 2 3 2.9375 6.125 C3.288125 7.07375 3.63875 8.0225 4 9 C4.99 9.33 5.98 9.66 7 10 C7 10.66 7 11.32 7 12 C5.35 11.67 3.7 11.34 2 11 C0.57741188 7.17679443 -0.24042276 4.08718695 0 0 Z " fill="#284168" transform="translate(63,118)"/>
<path d="M0 0 C-2 2 -2 2 -5 3 C-5.309375 3.66 -5.61875 4.32 -5.9375 5 C-7 7 -7 7 -9.125 7.75 C-10.053125 7.87375 -10.053125 7.87375 -11 8 C-9.04672006 1.97738686 -6.47971237 -0.53997603 0 0 Z " fill="#27416A" transform="translate(335,122)"/>
<path d="M0 0 C0.66 0.66 1.32 1.32 2 2 C1.71267364 6.45355865 1.4056198 10.15100832 -1 14 C-2.33500455 8.65998179 -1.512545 5.16044765 0 0 Z " fill="#40587B" transform="translate(105,89)"/>
<path d="M0 0 C3 1 3 1 5 4 C4.625 7.6875 4.625 7.6875 4 11 C0 5 0 5 0 0 Z " fill="#294B7B" transform="translate(19,61)"/>
<path d="M0 0 C0.66 0 1.32 0 2 0 C1.91306859 1.79258558 1.80489496 3.58415144 1.6875 5.375 C1.62949219 6.37273438 1.57148438 7.37046875 1.51171875 8.3984375 C1.34285156 9.25695313 1.17398438 10.11546875 1 11 C0.01 11.66 -0.98 12.32 -2 13 C-2.23509196 8.18061476 -1.45184478 4.53701494 0 0 Z " fill="#43597A" transform="translate(185,28)"/>
<path d="M0 0 C0.99 0.33 1.98 0.66 3 1 C2.34 4.96 1.68 8.92 1 13 C0.67 13 0.34 13 0 13 C-0.83796731 8.34462607 -1.0161692 4.62921525 0 0 Z " fill="#2B466D" transform="translate(300,137)"/>
<path d="M0 0 C2.64 0 5.28 0 8 0 C8 0.99 8 1.98 8 3 C5.36 3 2.72 3 0 3 C0 2.01 0 1.02 0 0 Z " fill="#2A5089" transform="translate(297,98)"/>
<path d="M0 0 C0.33 1.32 0.66 2.64 1 4 C1.66 4 2.32 4 3 4 C3.33 6.31 3.66 8.62 4 11 C3.01 11 2.02 11 1 11 C0.63743142 9.5437328 0.28520207 8.08488815 -0.0625 6.625 C-0.35833984 5.40683594 -0.35833984 5.40683594 -0.66015625 4.1640625 C-1 2 -1 2 0 0 Z " fill="#274979" transform="translate(147,81)"/>
<path d="M0 0 C0.33 0 0.66 0 1 0 C1.12375 1.093125 1.2475 2.18625 1.375 3.3125 C1.75464801 7.07381802 1.75464801 7.07381802 4 10 C4.125 12.6875 4.125 12.6875 4 15 C3.34 14.34 2.68 13.68 2 13 C1.34 12.67 0.68 12.34 0 12 C0 8.04 0 4.08 0 0 Z " fill="#2F4D79" transform="translate(25,82)"/>
<path d="M0 0 C0.66 0.33 1.32 0.66 2 1 C1.01 1.33 0.02 1.66 -1 2 C-1 2.66 -1 3.32 -1 4 C-0.34 4.33 0.32 4.66 1 5 C1.625 7.5625 1.625 7.5625 2 10 C1.01 10.33 0.02 10.66 -1 11 C-2.60725635 7.78548731 -2.05748185 4.56387464 -2 1 C-1.34 0.67 -0.68 0.34 0 0 Z " fill="#2B558E" transform="translate(236,73)"/>
<path d="M0 0 C2 1 2 1 3.125 4.3125 C4 8 4 8 4 12 C3.34 12 2.68 12 2 12 C0.40861915 7.82262526 -0.21278058 4.46839215 0 0 Z " fill="#2E466D" transform="translate(13,36)"/>
<path d="M0 0 C0.33 0.99 0.66 1.98 1 3 C-0.65 3 -2.3 3 -4 3 C-4 3.66 -4 4.32 -4 5 C-5.32 4.67 -6.64 4.34 -8 4 C-7.67 3.01 -7.34 2.02 -7 1 C-3.535 0.505 -3.535 0.505 0 0 Z " fill="#3B5A85" transform="translate(410,161)"/>
<path d="M0 0 C3.3 0 6.6 0 10 0 C9.67 0.99 9.34 1.98 9 3 C6.1875 3.1875 6.1875 3.1875 3 3 C2.01 2.01 1.02 1.02 0 0 Z " fill="#27446E" transform="translate(336,156)"/>
<path d="M0 0 C0.99 1.32 1.98 2.64 3 4 C2.34 4 1.68 4 1 4 C1 4.66 1 5.32 1 6 C0.34 6 -0.32 6 -1 6 C-1 6.66 -1 7.32 -1 8 C-1.99 8.33 -2.98 8.66 -4 9 C-2.25 2.25 -2.25 2.25 0 0 Z " fill="#3B547B" transform="translate(324,127)"/>
<path d="M0 0 C0.66 0 1.32 0 2 0 C2.66 2.97 3.32 5.94 4 9 C3.01 9.66 2.02 10.32 1 11 C-0.17571451 7.32589215 -0.07366746 3.83070817 0 0 Z " fill="#375177" transform="translate(155,107)"/>
<path d="M0 0 C0.66 0.33 1.32 0.66 2 1 C2 2.65 2 4.3 2 6 C1.34 5.67 0.68 5.34 0 5 C-0.33 6.98 -0.66 8.96 -1 11 C-2.55136786 8.53606281 -3.03039129 7.31910854 -2.75 4.375 C-2 2 -2 2 0 0 Z " fill="#2F507F" transform="translate(199,105)"/>
<path d="M0 0 C3 2 3 2 3.58203125 3.875 C3.65808594 4.57625 3.73414063 5.2775 3.8125 6 C3.90144531 6.70125 3.99039063 7.4025 4.08203125 8.125 C4 10 4 10 2 12 C1.66269158 10.56342755 1.33030409 9.12569907 1 7.6875 C0.814375 6.88699219 0.62875 6.08648437 0.4375 5.26171875 C0 3 0 3 0 0 Z " fill="#425979" transform="translate(38,148)"/>
<path d="M0 0 C4.09176955 0.30309404 7.46165096 0.87699058 11 3 C11 3.66 11 4.32 11 5 C9.7315625 4.5359375 9.7315625 4.5359375 8.4375 4.0625 C4.9502146 2.98461179 1.61822465 2.43418696 -2 2 C-1.34 1.34 -0.68 0.68 0 0 Z " fill="#274067" transform="translate(339,128)"/>
<path d="M0 0 C0.66 0.66 1.32 1.32 2 2 C1.625 5.125 1.625 5.125 1 8 C-0.65 7.67 -2.3 7.34 -4 7 C-3.34 6.67 -2.68 6.34 -2 6 C-2 5.01 -2 4.02 -2 3 C-1.34 3 -0.68 3 0 3 C0 2.01 0 1.02 0 0 Z " fill="#264878" transform="translate(102,98)"/>
<path d="M0 0 C0.66 0 1.32 0 2 0 C2.33 0.99 2.66 1.98 3 3 C3.495 3.495 3.99 3.99 4.5 4.5 C6 6 6 6 7 9 C3.64564078 7.61198929 1.88709697 6.11371 0 3 C0 2.01 0 1.02 0 0 Z " fill="#2A4269" transform="translate(271,153)"/>
<path d="M0 0 C0.66 0 1.32 0 2 0 C2.0825 0.94875 2.165 1.8975 2.25 2.875 C2.65074923 6.10461791 2.65074923 6.10461791 5.0625 7.375 C5.701875 7.58125 6.34125 7.7875 7 8 C6.01 8.495 6.01 8.495 5 9 C2.375 8.0625 2.375 8.0625 0 7 C0 4.69 0 2.38 0 0 Z " fill="#2A5082" transform="translate(278,148)"/>
<path d="M0 0 C2.31 0 4.62 0 7 0 C7 0.66 7 1.32 7 2 C7.99 2.33 8.98 2.66 10 3 C7.03 3 4.06 3 1 3 C0.67 2.01 0.34 1.02 0 0 Z " fill="#3D537B" transform="translate(373,120)"/>
<path d="M0 0 C0.33 0 0.66 0 1 0 C1.08086147 1.79093191 1.13912702 3.58289628 1.1875 5.375 C1.22230469 6.37273438 1.25710937 7.37046875 1.29296875 8.3984375 C1.19628906 9.25695312 1.09960938 10.11546875 1 11 C0.01 11.66 -0.98 12.32 -2 13 C-1.48041715 8.62065881 -0.94324258 4.31196609 0 0 Z " fill="#3E5476" transform="translate(179,56)"/>
<path d="M0 0 C1.88343932 3.76687864 2.22057835 5.02958963 2 9 C1.01 9.33 0.02 9.66 -1 10 C-0.67 6.7 -0.34 3.4 0 0 Z " fill="#3B5478" transform="translate(53,67)"/>
<path d="M0 0 C1.32 0.33 2.64 0.66 4 1 C4.33 3.31 4.66 5.62 5 8 C4.34 7.34 3.68 6.68 3 6 C2.01 6.495 2.01 6.495 1 7 C1.33 5.68 1.66 4.36 2 3 C1.34 2.67 0.68 2.34 0 2 C0 1.34 0 0.68 0 0 Z " fill="#365784" transform="translate(218,7)"/>
<path d="M0 0 C0.33 0.99 0.66 1.98 1 3 C1.66 3 2.32 3 3 3 C3 3.66 3 4.32 3 5 C5.97 5.495 5.97 5.495 9 6 C9 6.33 9 6.66 9 7 C3.375 7.25 3.375 7.25 0 5 C-0.75 2.9375 -0.75 2.9375 -1 1 C-0.67 0.67 -0.34 0.34 0 0 Z " fill="#28426A" transform="translate(243,158)"/>
<path d="M0 0 C1 3 1 3 0.0625 5.1875 C-0.4634375 6.0846875 -0.4634375 6.0846875 -1 7 C-1.33 6.67 -1.66 6.34 -2 6 C-2.66 6.99 -3.32 7.98 -4 9 C-3.6875 5.625 -3.6875 5.625 -3 2 C-2.01 1.34 -1.02 0.68 0 0 Z " fill="#3D5981" transform="translate(89,158)"/>
<path d="M0 0 C1.98 0.99 1.98 0.99 4 2 C4 1.34 4 0.68 4 0 C4.99 0 5.98 0 7 0 C7 1.65 7 3.3 7 5 C4.0625 4.1875 4.0625 4.1875 1 3 C0.67 2.01 0.34 1.02 0 0 Z " fill="#2A4D7C" transform="translate(304,149)"/>
<path d="M0 0 C2 2 2 2 2 5 C-1.21451269 6.60725635 -4.43612536 6.05748185 -8 6 C-8 5.67 -8 5.34 -8 5 C-6.865625 4.731875 -5.73125 4.46375 -4.5625 4.1875 C-3.386875 3.795625 -2.21125 3.40375 -1 3 C-0.67 2.01 -0.34 1.02 0 0 Z " fill="#52678C" transform="translate(183,175)"/>
<path d="M0 0 C1.875 0.3125 1.875 0.3125 4 1 C4.66 1.99 5.32 2.98 6 4 C4.125 4.625 4.125 4.625 2 5 C1.34 4.34 0.68 3.68 0 3 C0 2.01 0 1.02 0 0 Z " fill="#284673" transform="translate(323,155)"/>
<path d="M0 0 C2.475 0.495 2.475 0.495 5 1 C5.625 3.3125 5.625 3.3125 6 6 C5.01 7.485 5.01 7.485 4 9 C3.87882812 8.43410156 3.75765625 7.86820313 3.6328125 7.28515625 C3.38144531 6.18494141 3.38144531 6.18494141 3.125 5.0625 C2.96257812 4.33160156 2.80015625 3.60070312 2.6328125 2.84765625 C2.17038477 0.79299706 2.17038477 0.79299706 0 0 Z " fill="#3D5477" transform="translate(295,131)"/>
<path d="M0 0 C2.875 -0.125 2.875 -0.125 6 0 C6.66 0.66 7.32 1.32 8 2 C4.94736336 2.98120464 3.05263664 2.98120464 0 2 C-0.33 2.66 -0.66 3.32 -1 4 C-0.67 2.68 -0.34 1.36 0 0 Z " fill="#53678E" transform="translate(233,120)"/>
<path d="M0 0 C2 4 2 4 1.125 7.25 C0.75375 8.1575 0.3825 9.065 0 10 C-0.66 10 -1.32 10 -2 10 C-1.34 6.7 -0.68 3.4 0 0 Z " fill="#2B4F81" transform="translate(93,39)"/>
<path d="M0 0 C1.485 0.99 1.485 0.99 3 2 C3.40843923 4.71203652 3.13336867 7.2437142 3 10 C0.70366176 6.55549263 0.45983515 4.06187717 0 0 Z " fill="#2C446B" transform="translate(44,32)"/>
<path d="M0 0 C2.97 0 5.94 0 9 0 C8.67 1.65 8.34 3.3 8 5 C7.34 4.01 6.68 3.02 6 2 C2.93443402 1.26656572 2.93443402 1.26656572 0 1 C0 0.67 0 0.34 0 0 Z " fill="#2D4469" transform="translate(215,6)"/>
<path d="M0 0 C0.33 0 0.66 0 1 0 C0.67 2.31 0.34 4.62 0 7 C-1.32 7.33 -2.64 7.66 -4 8 C-3.34 6.35 -2.68 4.7 -2 3 C-1.34 3 -0.68 3 0 3 C0 2.01 0 1.02 0 0 Z " fill="#243F6C" transform="translate(351,148)"/>
<path d="M0 0 C-1.375 1.5 -1.375 1.5 -3 3 C-3.66 3 -4.32 3 -5 3 C-5.66 3.66 -6.32 4.32 -7 5 C-7 3.35 -7 1.7 -7 0 C-3.86650268 -1.04449911 -3.01031744 -0.93423645 0 0 Z " fill="#495F82" transform="translate(246,112)"/>
</svg>
